<svg xmlns="http://www.w3.org/2000/svg" viewBox="0 0 1367.49 447.25"><defs><style>.cls-1{fill:#134c4c;}.cls-2{fill:none;stroke:#000;stroke-miterlimit:10;}.cls-3{fill:#f9f4f4;}.cls-4{fill:#f9f9f9;}.cls-5{fill:#f9f7f7;}.cls-6{fill:#fcfafa;}.cls-7{fill:#2f7a05;}.cls-8{fill:#99e135;}.cls-9{fill:#fff;}.cls-10{fill:#aaef65;}.cls-11{fill:#97c115;}.cls-12{fill:#e4ef83;}.cls-13{fill:#edf4aa;}</style></defs><title>Asset 1</title><g id="Layer_2" data-name="Layer 2"><g id="Layer_1-2" data-name="Layer 1"><path class="cls-1" d="M592.92,327.08a91.79,91.79,0,0,0-8.83,2.62l-1.34.8C558.69,370.1,518.5,396.06,473,396.06c-73.64,0-133.33-67.86-133.33-151.58S399.34,92.9,473,92.9c43.44,0,82,23.62,106.35,60.17,1.73,1.06,3.49,2.06,5.3,3,9.7-.24,19.4-.65,29.1-1a29.48,29.48,0,0,0,1.83-3.25,30.67,30.67,0,0,0,1.26-3.11C587.86,92.66,534.29,55,473,55,380.92,55,306.3,139.84,306.3,244.48S380.92,434,473,434c63.38,0,118.49-40.23,146.68-99.45a15.79,15.79,0,0,0-2.37-6.06C609.15,328.1,601,327.61,592.92,327.08Z"/><path class="cls-1" d="M882.06,316.73a39.71,39.71,0,0,0-16.75-1.47,94.51,94.51,0,0,0-11.19,1.91c-10.71-27.71-41-47.69-76.77-47.69-44.69,0-80.92,31.23-80.92,69.74S732.66,409,777.35,409c26.48,0,49.94-11,64.7-27.93.75-.36,1.51-.72,2.27-1a54,54,0,0,1,8.82-1.29l5.81.11a19.09,19.09,0,0,1,7.59,8.86c-1.06,2.71-2.29,5.38-3.54,8.07-19.72,22.17-50.73,36.47-85.65,36.47-59.58,0-107.89-41.63-107.89-93s48.3-93,107.89-93C827.94,246.24,870.39,276.25,882.06,316.73Z"/><path class="cls-1" d="M1104.12,342.63a60,60,0,0,1-12.38,36.22,88.3,88.3,0,0,1-5.49,13.58c0,1.9-.09,3.8-.21,5.69v3.79c0,1.1,0,2.19,0,3.29a23.2,23.2,0,0,0,6.85,5.47c22.42-16.25,36.69-40.69,36.69-68,0-48.94-45.67-88.61-102-88.61s-102,39.67-102,88.6c0,28.69,15.71,54.18,40.07,70.37q2.22-1,4.37-2.1c.09-2.61.2-5.23.37-7.85V391.22c-2.24-3.77-4.48-7.14-5.48-9.3-.39-.84-.73-1.71-1.06-2.58a60.1,60.1,0,0,1-12.76-36.71c0-36.7,34.26-66.45,76.51-66.45S1104.12,305.93,1104.12,342.63Z"/><path class="cls-1" d="M1272.75,256.22c-52.32,0-94.74,39.67-94.74,88.6s42.42,88.6,94.74,88.6,94.74-39.67,94.74-88.6S1325.08,256.22,1272.75,256.22Zm0,155c-39.24,0-71-29.75-71-66.45s31.81-66.45,71-66.45,71,29.75,71,66.45S1312,411.27,1272.75,411.27Z"/><path class="cls-1" d="M879.82,330.88c.73-1.65,1.47-3.3,2.23-4.93v-9.22H762.79a19.93,19.93,0,0,0-5.62,4.78v8.08c1.93,1.47,3.86,3,5.82,4.37H875.2C876.78,333,878.31,332,879.82,330.88Z"/><line class="cls-2" x1="964.19" y1="272.56" x2="915.07" y2="212.91"/><line class="cls-2" x1="1154.22" y1="234.49" x2="1091.04" y2="278.98"/><line class="cls-2" x1="1156.8" y1="245.9" x2="1094.46" y2="291.56"/><line class="cls-2" x1="958.61" y1="282.47" x2="909.49" y2="222.82"/><circle class="cls-1" cx="911.15" cy="220.67" r="17.43"/><circle class="cls-1" cx="1159.01" cy="233.1" r="17.43"/><path class="cls-3" d="M959.76,286.58c5.15,0,5.16-8,0-8s-5.16,8,0,8Z"/><path class="cls-3" d="M959.76,286.58c5.15,0,5.16-8,0-8s-5.16,8,0,8Z"/><path class="cls-3" d="M1099,295.16c.36-.61.74-1.21,1.15-1.78l.31-.43c-.36.46-.4.52-.13.18l.69-.81h-5.66l1,.82a4.32,4.32,0,0,0,2.83,1.17,4.11,4.11,0,0,0,2.83-1.17c1.34-1.46,1.74-4.25,0-5.66l-1-.82a4.2,4.2,0,0,0-2.83-1.17,4,4,0,0,0-2.83,1.17,29.17,29.17,0,0,0-3.28,4.45,4,4,0,0,0,6.92,4.05Z"/><path class="cls-3" d="M1101,292.54c5.15,0,5.16-8,0-8s-5.16,8,0,8Z"/><path class="cls-3" d="M1100.55,290.71c5.15,0,5.16-8,0-8s-5.16,8,0,8Z"/><path class="cls-3" d="M1089.54,283.83c5.15,0,5.16-8,0-8s-5.16,8,0,8Z"/><path class="cls-3" d="M1091.83,284.28c5.15,0,5.16-8,0-8s-5.15,8,0,8Z"/><path class="cls-3" d="M1090,282.91c5.15,0,5.16-8,0-8s-5.16,8,0,8Z"/><path class="cls-3" d="M1091.83,283.37c5.15,0,5.16-8,0-8s-5.15,8,0,8Z"/><path class="cls-3" d="M859.78,321.89c5.15,0,5.16-8,0-8s-5.15,8,0,8Z"/><path class="cls-3" d="M864.37,321.89c5.15,0,5.16-8,0-8s-5.16,8,0,8Z"/><path class="cls-3" d="M868,321.89c5.15,0,5.16-8,0-8s-5.16,8,0,8Z"/><path class="cls-3" d="M858.41,323.27c5.15,0,5.16-8,0-8s-5.16,8,0,8Z"/><path class="cls-3" d="M859.32,320.06c5.15,0,5.16-8,0-8s-5.15,8,0,8Z"/><path class="cls-3" d="M868,321.43h5a4,4,0,0,0,0-8h-5a4,4,0,0,0,0,8Z"/><path class="cls-3" d="M876.75,321.43c5.15,0,5.16-8,0-8s-5.15,8,0,8Z"/><path class="cls-3" d="M858.41,319.6c5.15,0,5.16-8,0-8s-5.16,8,0,8Z"/><path class="cls-1" d="M858.41,321.89c5.15,0,5.16-8,0-8s-5.16,8,0,8Z"/><path class="cls-1" d="M876.29,321c5.15,0,5.16-8,0-8s-5.15,8,0,8Z"/><path class="cls-3" d="M877.21,323.72c5.15,0,5.16-8,0-8s-5.16,8,0,8Z"/><path class="cls-3" d="M877.21,322.81c5.15,0,5.16-8,0-8s-5.16,8,0,8Z"/><path class="cls-3" d="M876.75,320.51c5.15,0,5.16-8,0-8s-5.15,8,0,8Z"/><path class="cls-3" d="M925.36,235.67c5.15,0,5.16-8,0-8s-5.15,8,0,8Z"/><path class="cls-4" d="M1092.29,293.8a23.65,23.65,0,0,1,5.55,6.75l6.28-4.85c-2.37-2.93-5.59-4.75-8.8-6.62a39.42,39.42,0,0,1-9.45-7.66c-3.06-3.38-8.63,1-6.28,4.85a8.12,8.12,0,0,0,4.58,3.65c4.83,1.79,6.92-5.94,2.13-7.71l.2,0-6.28,4.85a44.77,44.77,0,0,0,9.2,7.78c3.2,2,6.62,3.49,9,6.5,2.93,3.62,8.41-1,6.28-4.85a30.19,30.19,0,0,0-6.8-8.37c-3.9-3.34-9.58,2.3-5.66,5.65Z"/><path class="cls-5" d="M1079.85,282.1c2.09,3.72,5.7,6.34,8.86,9.12,1.49,1.31,3,2.63,4.42,4s4.82,4,4.9,6.07c.17,4.26,7.14,5.73,7.86,1.06,2.18-14.14-14.31-17.95-24.43-21.94-4.79-1.89-6.87,5.84-2.13,7.71,4.44,1.75,19.89,5.34,18.85,12.1l7.86,1.06c-.43-10.93-14.54-14.81-19.27-23.24-2.54-4.47-9.45-.45-6.92,4.05Z"/><path class="cls-1" d="M1093.05,295.51a82.74,82.74,0,0,1,20,35.25c1.38,4.95,9.1,2.85,7.71-2.13a91.21,91.21,0,0,0-22.1-38.78c-3.56-3.73-9.21,1.93-5.65,5.66Z"/><path class="cls-1" d="M1078.87,281a51.81,51.81,0,0,1,24.66,31.61l7.31-3.08a46.67,46.67,0,0,0-9.73-12.43c-4-3.51-8.06-6.76-11.63-10.76-6.52-7.31-12.83-15-22.83-17.25-.35,2.62-.71,5.24-1.06,7.86,10.28.81,20,10.48,27.91,16.35,8.14,6,17.2,12,21.46,21.57l.63-4.85-.54.59,2.83-1.17c-1,.09-5.09-6.63-5.65-7.37q-2.91-3.88-5.81-7.76l-11.63-15.52-6.28,4.85a35.94,35.94,0,0,1,12.37,17l7.71-2.13c-.15-.37-.29-.74-.44-1.12-1.86-4.74-9.6-2.67-7.71,2.13.15.37.29.74.44,1.12,1.84,4.69,9.41,2.83,7.71-2.13a43.17,43.17,0,0,0-14.43-20.52c-3.2-2.48-9.28.84-6.28,4.85l18.6,24.83c2.85,3.8,9,14.31,14.76,8a4.19,4.19,0,0,0,.63-4.85c-4.81-10.78-15.14-17.64-24.33-24.44-9.56-7.08-19.57-16.47-32-17.44-4.5-.36-5.43,6.85-1.06,7.86,9.14,2.1,14.43,9.94,20.43,16.46a114.6,114.6,0,0,0,9.87,9,41.35,41.35,0,0,1,9.1,11.35c2.25,3.93,8.52,1.31,7.31-3.08a59.93,59.93,0,0,0-28.34-36.39c-4.48-2.56-8.52,4.35-4,6.89Z"/><path class="cls-6" d="M923.41,237.62a522.08,522.08,0,0,1,35.19,40.3c2.78,3.54,7.71-1.45,4.95-4.95a524.24,524.24,0,0,0-35.19-40.3c-3.14-3.24-8.09,1.71-5,5Z"/><path class="cls-6" d="M924,235.91c4.5,0,4.51-7,0-7s-4.51,7,0,7Z"/><path class="cls-6" d="M961.91,273.65c-2-1.51-3.07-3.59-4.13-5.8a9.63,9.63,0,0,0-5.32-5.26c-1.76-.7-3.84.77-4.31,2.44a3.59,3.59,0,0,0,2.44,4.31c-.36-.14.22.31.33.5.25.42.47.84.68,1.28.49,1,.92,2,1.5,3a20,20,0,0,0,5.27,5.58c1.51,1.14,3.91.24,4.79-1.26a3.58,3.58,0,0,0-1.25-4.79Z"/><path class="cls-6" d="M922.61,235.56c4.5,0,4.51-7,0-7s-4.51,7,0,7Z"/><path class="cls-1" d="M920,234.68q19.93,24.42,41.87,47.07c3.14,3.24,8.09-1.71,4.95-4.95q-21.93-22.65-41.87-47.07c-2.85-3.49-7.78,1.49-4.95,5Z"/><path class="cls-6" d="M947.3,264.14c4.5,0,4.51-7,0-7s-4.51,7,0,7Z"/><path class="cls-6" d="M949.42,267.31c4.5,0,4.51-7,0-7s-4.51,7,0,7Z"/><path class="cls-1" d="M951.19,269.07c4.5,0,4.51-7,0-7s-4.52,7,0,7Z"/><path class="cls-6" d="M952.24,271.19c4.5,0,4.51-7,0-7s-4.51,7,0,7Z"/><path class="cls-6" d="M952.6,271.54c4.5,0,4.51-7,0-7s-4.52,7,0,7Z"/><path class="cls-1" d="M953.3,272.25c4.5,0,4.51-7,0-7s-4.51,7,0,7Z"/><path class="cls-6" d="M927.55,239.09c4.5,0,4.51-7,0-7s-4.51,7,0,7Z"/><path class="cls-6" d="M929.67,240.85c4.5,0,4.51-7,0-7s-4.52,7,0,7Z"/><path class="cls-6" d="M931.08,243.32c4.5,0,4.51-7,0-7s-4.51,7,0,7Z"/><path class="cls-6" d="M926.84,237.68c4.5,0,4.51-7,0-7s-4.51,7,0,7Z"/><path class="cls-6" d="M1096.71,286a444.94,444.94,0,0,0,62.56-48.32c3.31-3.07-1.65-8-5-5a434.27,434.27,0,0,1-61.14,47.23c-3.78,2.42-.28,8.48,3.53,6Z"/><path class="cls-6" d="M1142.8,244q-24.85,17-50.51,32.71c-3.83,2.35-.32,8.41,3.53,6Q1121.49,267,1146.33,250c3.7-2.53.21-8.59-3.53-6Z"/><path class="cls-1" d="M1101.69,284.77q23.16-16.89,45-35.46c3.44-2.92-1.54-7.86-5-4.95q-21.13,18-43.57,34.37c-3.6,2.63-.11,8.7,3.53,6Z"/><path class="cls-6" d="M1118.58,270.37q16-13.1,32.51-25.63c3.54-2.69.06-8.77-3.53-6q-17.19,13.08-33.93,26.73c-3.49,2.84,1.49,7.77,4.95,4.94Z"/><path class="cls-1" d="M1110.43,274.85,1156.28,241c3.59-2.64.1-8.72-3.53-6l-45.85,33.81c-3.59,2.64-.1,8.71,3.53,6Z"/><path class="cls-1" d="M1115,272.42l28.72-21.25c4.28-3.17,8.54-6.38,12.87-9.49,4-2.88,9.28-7.51,14.23-8.47l-3.41-.9.38.41-.9-3.41c0,.16-.09.32-.13.48-1.23,4.34,5.53,6.2,6.75,1.86s-3.07-5.93-6.48-4.63c-6.3,2.41-12.09,7.21-17.47,11.17q-19.08,14-38.09,28.19c-3.58,2.65-.09,8.73,3.53,6Z"/><path class="cls-1" d="M1150.58,240.42q-23.32,17-47.75,32.31c-3.8,2.39-.3,8.45,3.53,6q24.42-15.34,47.75-32.31c3.61-2.62.12-8.7-3.53-6Z"/><path class="cls-1" d="M1140,247.89c-4.61,1.52-7.64,5-11.64,7.56s-7.91,4.37-10.81,8.06c-2.75,3.5,2.17,8.49,5,4.95,2.53-3.21,6-4.83,9.39-7s6.15-5.6,10-6.85c4.27-1.41,2.45-8.17-1.85-6.76Z"/><path class="cls-1" d="M921.41,233.19c1.08,3.16,3.43,4.54,5.64,6.82,2.63,2.7,4.85,5.9,7.22,8.83.51-2,1-3.9,1.54-5.85l1.56.33c-3.43-2.87-8.41,2.05-5,5,1.62,1.36,3.13,2.12,5.25,1.47,2.7-.83,3.19-3.82,1.54-5.85-2-2.53-4.05-5.1-6.14-7.6-1.29-1.54-4.29-3.12-4.92-5-1.43-4.24-8.2-2.42-6.74,1.86Z"/><path class="cls-1" d="M859.18,312.62c.71,2,.55,3.46-1,4.94l10,5.8a21.93,21.93,0,0,0-.45-14.48c-1.09-2.75-3.4-4.74-6.53-4.26-2.73.41-5.39,2.84-5.16,5.84a11.91,11.91,0,0,1-1.8,7.68c-3,4.82,1.93,9.53,6.72,8.75A10.12,10.12,0,0,0,869.05,316c-.55-5.28-5.2-8.87-10.34-8.94-4.82-.06-7,5-5.14,9,3.26,6.86,10.84,13.16,18.51,8.27,6.77-4.32,4.94-13,2.27-19.17-2.36-5.41-11.5-2.68-11.09,3a50,50,0,0,0,3.56,15.74c2.2,5.3,9.5,6,11.48,0a21.65,21.65,0,0,0-1.73-17.29c-3.33-6.11-12.31-1.83-10.88,4.58L868,321.59c1.67,7.48,13.15,4.31,11.48-3.17L877.17,308l-10.88,4.59a9.7,9.7,0,0,1,.53,8.12H878.3a40.65,40.65,0,0,1-3.14-12.58l-11.09,3a12.21,12.21,0,0,1,.87,3.06c.09.75-.47,1.6.43.3.59-.85.6,0,.57-.77s-1.75-3-2.09-3.71l-5.14,9c-1,0-1.15-1.05-1.17-1.79-.34-.72-.18-1.21.47-1.47.78-.46.69-.55-.27-.26l6.72,8.74a22.62,22.62,0,0,0,3.42-13.69L856.19,312a11.53,11.53,0,0,1,.45,8.15c-1.8,5.86,5.77,9.76,10,5.79a15.73,15.73,0,0,0,4.07-16.53c-1.09-3-4-5.06-7.32-4.16-2.92.81-5.26,4.29-4.16,7.33Z"/><path class="cls-1" d="M1079.88,288.41c7.66,0,7.67-11.9,0-11.9s-7.67,11.9,0,11.9Z"/><path class="cls-1" d="M1076.14,280.57c3.68,1.92,6.66,5,9.78,7.65l10.21,8.82c4.84,4.18,13.23-1.19,9.35-7.21a55.2,55.2,0,0,0-19-18.18c-5.65-3.25-12.57,4.92-7.21,9.35A41.23,41.23,0,0,1,1091,296.56c3.09,7,13.35.95,10.28-6a48.91,48.91,0,0,0-13.62-18l-7.21,9.35a42.27,42.27,0,0,1,14.72,13.91l9.35-7.22-11.48-9.92c-3.47-3-6.84-6.28-10.92-8.41-6.79-3.54-12.81,6.73-6,10.28Z"/><path class="cls-1" d="M963.4,291.32a9.7,9.7,0,0,1,4.87-6.42,6,6,0,0,0-6-10.28,21.9,21.9,0,0,0-10.35,13.54c-.76,3,1,6.6,4.16,7.32a6.06,6.06,0,0,0,7.33-4.16Z"/><path class="cls-1" d="M1158,238.85l2.46-1.23-6-10.28-6,3.22a6,6,0,0,0-2.14,8.14,6.08,6.08,0,0,0,8.15,2.14l6-3.22a6,6,0,0,0,2.13-8.14,6.09,6.09,0,0,0-8.14-2.14l-2.45,1.23a6,6,0,0,0-2.14,8.15,6.09,6.09,0,0,0,8.14,2.13Z"/><path class="cls-1" d="M918.45,229.71c7.67,0,7.68-11.91,0-11.91s-7.67,11.91,0,11.91Z"/><path class="cls-1" d="M920,219l-2.74-.94a6,6,0,0,0-4.59.6,6.11,6.11,0,0,0-2.74,3.56,6,6,0,0,0,.6,4.58,6.54,6.54,0,0,0,3.56,2.74l2.75.94a6,6,0,0,0,6.72-8.75A6.53,6.53,0,0,0,920,219Z"/><path class="cls-1" d="M919.43,228.28c-3.48,11.53,10.65,15.14,16.34,22.08,8.47,10.34,15.85,21.79,23.68,32.63,3,4.1,9.85.14,6.85-4L946.22,251.2c-2.74-3.77-5.39-7.71-9-10.69-3-2.43-11.55-5.36-10.11-10.12s-6.18-7-7.66-2.11Z"/><path class="cls-1" d="M871.17,314.85a27.11,27.11,0,0,1,1.69,8.72c.1,4.3,6.9,5.61,7.79,1.06a21.28,21.28,0,0,0-1.75-13.73c-.92-1.93-3.69-2.44-5.43-1.42a4,4,0,0,0-1.42,5.43,12.24,12.24,0,0,1,1,7.61l7.79,1.05a34.14,34.14,0,0,0-2-10.83,4.08,4.08,0,0,0-4.89-2.78,4,4,0,0,0-2.77,4.89Z"/><path class="cls-1" d="M922,233.22a324.38,324.38,0,0,0,38.7,50.6c3.49,3.75,9.09-1.87,5.62-5.61a312.62,312.62,0,0,1-37.46-49c-2.68-4.34-9.54-.36-6.86,4Z"/><path class="cls-1" d="M925.86,237.08c4.13,7.73,9.72,14.41,15.38,21a234.15,234.15,0,0,1,17.54,23.57,4,4,0,0,0,6.86-4,151.67,151.67,0,0,0-8.24-14.32c-2.78-4.27-9.66-.29-6.86,4a147.58,147.58,0,0,1,8.24,14.33l6.86-4A232.29,232.29,0,0,0,949,255.07c-5.94-7-12-13.84-16.33-22-2.4-4.51-9.26-.51-6.85,4Z"/><path class="cls-1" d="M959.68,276.83c5.1,0,5.11-7.93,0-7.93s-5.12,7.93,0,7.93Z"/><path class="cls-1" d="M962,280.05c5.11,0,5.12-7.94,0-7.94s-5.12,7.94,0,7.94Z"/><path class="cls-1" d="M1088.89,284.06c5.07,3.78,11.31-.34,16-2.81,6.22-3.28,12.3-6.79,16.2-12.82,1.81-2.81-1.22-7-4.48-5.83a41.11,41.11,0,0,0-11.68,6.2c-4.07,3.16-7.06,7.24-12,9.21l3.06,7.25c10.09-5.16,20.07-10.54,28.14-18.64,3.08-3.09-1-8.91-4.81-6.24a217.19,217.19,0,0,1-29,17.33l4,6.86c10-5.59,20.42-10.78,29.87-17.28,4.18-2.88.21-9.76-4-6.85-9.45,6.5-19.86,11.69-29.87,17.27-4.49,2.51-.53,9.11,4,6.86a218.26,218.26,0,0,0,29-17.33l-4.81-6.24c-7.59,7.62-17.06,12.55-26.53,17.41-3.93,2-1.16,8.94,3,7.25,9.08-3.63,14.36-12.11,23.67-15.41l-4.48-5.83c-2.44,3.77-6.25,6-10.08,8.2-2.21,1.25-9,6.25-11.25,4.59-4.1-3.06-8.06,3.83-4,6.85Z"/><path class="cls-1" d="M1147.66,240.89c-13.19,7.74-25.54,16.74-37.61,26.1q-4.44,3.43-8.83,6.91c-2.35,1.86-5.31,3.61-6.94,6.18-3.65,5.77,2.56,10.86,6,14.94,2.49,3,8-.21,6.64-3.86a42.12,42.12,0,0,0-6.48-11.36c-3.16-4-8.74,1.64-5.61,5.61a29.73,29.73,0,0,1,4.43,7.86l6.64-3.86-3-3.58c-.42-.5-.83-1-1.24-1.51q-1.24-1.32-.21-.45c.8-1.71,4.75-3.83,6.15-4.94,4.87-3.84,9.76-7.66,14.72-11.38a314,314,0,0,1,29.38-19.81c4.41-2.59.42-9.45-4-6.85Z"/><path class="cls-1" d="M1081.21,290.59c5.1,0,5.11-7.93,0-7.93s-5.12,7.93,0,7.93Z"/><path class="cls-1" d="M1090.38,283.26c5.11,0,5.11-7.94,0-7.94s-5.12,7.94,0,7.94Z"/><path class="cls-1" d="M1089.46,282.8c5.11,0,5.12-7.94,0-7.94s-5.12,7.94,0,7.94Z"/><path class="cls-1" d="M1090.38,282.32a3.09,3.09,0,0,1,.43,0l-1.06-.14a2,2,0,0,1,.42.11l-1-.4a2.46,2.46,0,0,1,.5.28l-.8-.62a2.83,2.83,0,0,1,.3.3l-.62-.8a1.67,1.67,0,0,1,.16.24,4.16,4.16,0,0,0,2.38,1.83,4,4,0,0,0,4.48-5.83,5.86,5.86,0,0,0-5.24-2.91,4.21,4.21,0,0,0-2.81,1.16,4,4,0,0,0,0,5.61,3.92,3.92,0,0,0,2.81,1.16Z"/><path class="cls-1" d="M1123,256.26c-9.23,7.05-18.34,14.31-28.35,20.24-4.39,2.6-.4,9.46,4,6.85,10-5.92,19.12-13.19,28.35-20.24,4-3.06.06-10-4-6.85Z"/><path class="cls-1" d="M1145.44,242.54a543.28,543.28,0,0,1-48.89,35.2l4.81,6.24a70.72,70.72,0,0,1,13.47-9.05L1110,268.7l-12,10.12,5.61,5.61A100.11,100.11,0,0,1,1117.91,273l-4.8-6.23a35.08,35.08,0,0,1-8.26,7.15c-4.34,2.69-.36,9.55,4,6.85a41.31,41.31,0,0,0,9.87-8.39c2.75-3.22-.81-8.87-4.81-6.23a110.87,110.87,0,0,0-15.86,12.63c-3.74,3.58,1.76,8.86,5.61,5.61l12-10.12c3.58-3-1-8.22-4.81-6.23a79.76,79.76,0,0,0-15.09,10.28c-3.42,2.94,1,8.65,4.81,6.24a562.6,562.6,0,0,0,50.51-36.45c4-3.21-1.68-8.8-5.62-5.61Z"/><path class="cls-1" d="M1146.12,242.44c-4.2,6-11.72,10.2-17.65,14.31q-9.56,6.62-19.53,12.56c-4.38,2.63-.39,9.49,4,6.86q11.57-6.93,22.58-14.7c6.21-4.4,13-8.71,17.46-15,2.93-4.19-4-8.16-6.86-4Z"/><path class="cls-1" d="M1149.54,243.82c5.1,0,5.11-7.94,0-7.94s-5.12,7.94,0,7.94Z"/><path class="cls-1" d="M1147.7,245.65c5.11,0,5.12-7.94,0-7.94s-5.11,7.94,0,7.94Z"/><path class="cls-1" d="M962,286.39h18.34c3.83,0,3.84-5.95,0-5.95H962c-3.83,0-3.84,5.95,0,5.95Z"/><path class="cls-1" d="M768.44,335.5H872.08c4.47,0,4.48-6.95,0-6.95H768.44c-4.47,0-4.47,6.95,0,6.95Z"/><path class="cls-1" d="M770.28,336.42h100c4.47,0,4.48-6.95,0-6.95h-100c-4.47,0-4.48,6.95,0,6.95Z"/><path class="cls-7" d="M109.05,209.37a.56.56,0,0,0,0-1.12.56.56,0,0,0,0,1.12Z"/><path class="cls-7" d="M109.69,208.72a.56.56,0,0,0,0-1.12.56.56,0,0,0,0,1.12Z"/><path class="cls-7" d="M110.34,193.23a.56.56,0,0,0,0-1.12.56.56,0,0,0,0,1.12Z"/><path class="cls-7" d="M110.34,193.23a.56.56,0,0,0,0-1.12.56.56,0,0,0,0,1.12Z"/><path class="cls-7" d="M110.34,193.23a.56.56,0,0,0,0-1.12.56.56,0,0,0,0,1.12Z"/><path class="cls-8" d="M126.47,208.39c-49.55,0-89.71,43.35-89.71,96.81a104.36,104.36,0,0,0,1.43,17.27,8,8,0,0,1,2.93,2.7,7.27,7.27,0,0,1-.53,8.1C51.74,373.05,86,402,126.47,402c49.55,0,89.71-43.34,89.71-96.81S176,208.39,126.47,208.39Z"/><ellipse class="cls-8" cx="119.69" cy="148.14" rx="74.54" ry="41.3"/><ellipse class="cls-8" cx="79.04" cy="431.29" rx="33.88" ry="15.96"/><ellipse class="cls-8" cx="189.71" cy="431.29" rx="31.3" ry="15.96"/><circle class="cls-8" cx="39.87" cy="20.78" r="15.17"/><circle class="cls-8" cx="189.44" cy="15.17" r="15.17"/><rect class="cls-8" x="106.97" y="180.41" width="30.33" height="52.92"/><ellipse class="cls-8" cx="118.87" cy="85.09" rx="56.52" ry="59.06"/><path class="cls-8" d="M157.46,41.65,171.8,26.8c1.67-1.73,5.42-7,8.3-5.36,3.77,2.13-.48,7.36-2.28,9.27-3.63,3.84-8.3,6.45-12.72,9.25a72.8,72.8,0,0,0-6.21,4.36,6.54,6.54,0,0,1-1.69,1.23c-2.26.74-2.16-1.31-2.31-2.63-.21-1.7-.36-3.41-.54-5.12l-.84.48c4.6,3.4,9.5-.85,12.68-4.08,4.37-4.42,8.55-9.15,13.66-12.75a35.61,35.61,0,0,1,3.63-2.27c.91-.49,3.26-1.17,2.9.76a6.64,6.64,0,0,1-1,1.87,25,25,0,0,1-4.71,5.55c-3.72,3.36-8.09,5.88-12.24,8.66C164.09,39,159.89,42.21,157,46.69l1,.56a80.14,80.14,0,0,1,19.38-21.49l-.82-.63A32.71,32.71,0,0,1,167,38.64c-3.25,2.87-6.81,5.88-7.5,10.4-.09.57.73,1.06,1,.44a75.18,75.18,0,0,1,17.27-23.41l-.79-.8L159.23,46c-.47.55.32,1.35.79.8L169.26,36l4.51-5.25c.85-1,3.89-5.41,5.58-3.43v-.8q-8.65,9-18,17.3c-.49.43.14,1.18.68.88,7.32-4,10.05-15.36,19.1-16.39-.09-.35-.19-.69-.28-1.05-9,6.49-14.76,16.74-21,25.66l1,.28c.19-5.38,3.39-10,6.1-14.48q4.2-6.93,8.73-13.65c.35-.52-.47-1.16-.88-.68a53.69,53.69,0,0,0-11.77,23.19l1-.14A6.89,6.89,0,0,1,163,41.09l-1,.14c.55,1.25,1.09,2.5,1.63,3.75.18.41.76.3,1,0q5.91-8.55,11.56-17.27c.37-.58-.42-1.05-.89-.68a34.42,34.42,0,0,0-9.13,11.17c-.33.64.63,1.21,1,.56a33.64,33.64,0,0,1,9-10.94l-.89-.69q-5.64,8.73-11.55,17.27h1c-.55-1.25-1.09-2.5-1.63-3.74-.21-.48-.9-.29-1,.13a7.93,7.93,0,0,0,1.19,7.2.56.56,0,0,0,1-.13,52.73,52.73,0,0,1,11.49-22.69l-.89-.69q-4.9,7.32-9.46,14.85c-2.59,4.3-5.34,8.7-5.52,13.85a.57.57,0,0,0,1.05.29c6.09-8.75,11.78-18.89,20.56-25.25.39-.28.33-1.12-.28-1C171.51,28.26,169,39.5,161.41,43.71c.23.3.46.59.68.89q9.39-8.28,18.06-17.3a.57.57,0,0,0,0-.79c-2.86-3.31-7.42,3.71-8.84,5.36L159.22,46l.8.8,17.72-20.7a.57.57,0,0,0-.8-.8A75.9,75.9,0,0,0,159.5,48.91l1,.44c.78-5.08,5.32-8.1,8.82-11.36a31.66,31.66,0,0,0,8.27-12.56c.16-.43-.44-.93-.83-.63A81.16,81.16,0,0,0,157,46.69c-.39.62.58,1.18,1,.57,5.81-9,16.7-12.54,24.23-19.76,1.45-1.39,8.36-8.67,4.33-10.24a3.38,3.38,0,0,0-2.53.4,28.83,28.83,0,0,0-4.48,2.65,55.78,55.78,0,0,0-6.94,5.81c-2.69,2.58-5.21,5.32-7.85,8s-6.83,6.08-10.67,3.25a.56.56,0,0,0-.84.48c.17,1.71.35,3.42.53,5.13a5.54,5.54,0,0,0,.92,3.26c1.29,1.46,3.12.43,4.35-.53,4.55-3.59,9.63-6.33,14.34-9.7a34.26,34.26,0,0,0,5.81-5.07c1.57-1.79,3.36-4,3.44-6.5a4.09,4.09,0,0,0-3.07-4.32c-2.3-.41-4.27,1.53-5.72,3-5.75,5.9-11.44,11.85-17.16,17.77-.5.52.29,1.32.79.79Z"/><path class="cls-8" d="M48.05,31.27a76.35,76.35,0,0,1,27.71,21,.56.56,0,0,0,.79,0c2.34-2.57,5-5.06,7.1-7.84,1.19-1.6.83-3.38-1.1-4.16a8.89,8.89,0,0,0-3.33-.29c-2,0-3.06-1-4.21-2.51-1.63-2.09-3-3.53-5.64-4.1a26,26,0,0,1-9.29-3.78c-2.25-1.46-4.81-3.85-7.53-4.26C50,24.91,48.81,27,47.21,28.47a3,3,0,0,1-.79.68l-1.13,0,2.22-.59a9.07,9.07,0,0,1,2.14,1.35c1.54,1,3.12,1.93,4.72,2.83a206.57,206.57,0,0,0,21.41,9.91c.59.25,1-.73.43-1A122.24,122.24,0,0,1,60.24,31c-2.69-2.06-5.32-4.19-8-6.33-.69-.56-2.77-2.62-3-.42C49,26,51.71,27.31,52.84,28.1c2.56,1.8,5.2,3.49,7.89,5.09a127.51,127.51,0,0,0,16.65,8.24c.11-.36.2-.73.3-1.09A47.14,47.14,0,0,1,52.42,22.53a.58.58,0,0,0-.63-.25c-2.07.4-1,3.06-.29,4.19a13,13,0,0,0,6.1,4.75c3.08,1.3,6.41,1.81,9.55,2.91a65.3,65.3,0,0,1,10.23,5c.09-.35.19-.7.29-1a20.61,20.61,0,0,1-8.55-2.9c-.05.34-.09.69-.14,1a33.18,33.18,0,0,1,19.39,2.34v-1a15.75,15.75,0,0,1-10.65,1.52l-.15,1.1h5.76l-.4-1c-2,1.62-4-2.53-5.16-3.62a3.22,3.22,0,0,0-3.33-1,.56.56,0,0,0,.15,1.1l13.7.11-.15-1.1A65.66,65.66,0,0,1,75.48,36c.09.35.18.69.28,1a3.16,3.16,0,0,1,4.07,1.3c1,2-.94,4.18-3,4.15a.56.56,0,0,0,0,1.12c2.66,0,5.15-2.6,4.18-5.31A4.25,4.25,0,0,0,75.2,36.1c-.52.24-.24,1,.28,1a66.43,66.43,0,0,0,13-1.31c.63-.13.47-1.1-.15-1.11l-13.7-.11.15,1.11c3.37-1,5,7.57,9,4.31.39-.31.05-1-.4-1l-5.76,0c-.61,0-.78,1-.15,1.11a17,17,0,0,0,11.51-1.63.56.56,0,0,0,0-1,34.51,34.51,0,0,0-20.25-2.45.56.56,0,0,0-.13,1,21.89,21.89,0,0,0,9.11,3c.57.06.74-.79.29-1A61.18,61.18,0,0,0,64,32a34,34,0,0,1-7.29-2.45,12.91,12.91,0,0,1-3-2.12c-.27-.27-3.18-3.78-1.63-4.08l-.64-.26A48.38,48.38,0,0,0,77.41,41.43c.71.21.94-.81.3-1.08a123.3,123.3,0,0,1-14.36-7c-2.24-1.26-4.43-2.6-6.59-4-.85-.56-6.59-3.78-6.3-4.82-.07.24,2.58,2.11,2.93,2.39l2.94,2.36c2,1.6,4,3.18,6.1,4.7a114.3,114.3,0,0,0,13.23,8.54l.44-1a211.74,211.74,0,0,1-20.53-9.47c-1.61-.88-3.2-1.81-4.75-2.79-1.2-.75-2.47-1.9-3.9-2.17s-3.24.86-2.64,2.57c.67,1.93,2.85.48,3.75-.4s1.62-2.12,2.77-2.65c2.07-.95,4.48,1.09,6.13,2.17a41.46,41.46,0,0,0,8.18,4.67c1.52.56,3.08.67,4.62,1.09,2,.54,3,1.75,4.23,3.31a9.47,9.47,0,0,0,2.46,2.51c1.29.78,2.6.65,4,.66a3.48,3.48,0,0,1,1.6.22,1.68,1.68,0,0,1,.42,2.81c-.69.81-1.44,1.58-2.16,2.37l-4.55,5h.8A76.79,76.79,0,0,0,48.64,30.32c-.68-.31-1.25.66-.59.95Z"/><path class="cls-8" d="M165.56,33.67a75.3,75.3,0,0,1-21.18,4.9c-.6,0-.81.94-.15,1.1,4.8,1.14,9.45-1.41,13.77-3.18l15.07-6.18a.57.57,0,0,0-.3-1.09c-6.13,1.33-11.42,4.71-16.59,8.11a.56.56,0,0,0,.57,1c3.5-2.1,7-4.17,10.52-6.28,2.38-1.43,4.63-3,5.69-5.69.26-.68-.82-1-1.08-.3-1.19,3-4.32,4.51-6.92,6.06l-8.78,5.24.57,1c5.09-3.35,10.28-6.69,16.32-8-.1-.36-.19-.73-.3-1.09L159,34.86c-4.41,1.81-9.61,4.89-14.51,3.73l-.15,1.1a76.32,76.32,0,0,0,21.48-4.93c.66-.27.37-1.35-.3-1.09Z"/><path class="cls-8" d="M63.43,32.25c2.26,3.18,6,4.2,9.7,4.32,4.08.14,13.14-2.74,14.19,3.19l.4-.69a18.41,18.41,0,0,1-7.48,1.35.57.57,0,0,0-.28,1c.87.61,1.58.11,2.24-.58s1-1.41,1.87-1.79a6.25,6.25,0,0,1,3.63.11l-.39-.69C85.92,42,81.77,46,77.69,44.83c-1.32-.39-2.35-1.65-1.22-3a5.08,5.08,0,0,1,2.46-1.28c2.34-.71,4.81-1.12,7.2-1.67-.15-.34-.29-.69-.44-1-1.94,1.09-6.34,2.9-6.84-.78l-.26.63c1.46-.66,4.51-1.95,5.39.25.66,1.67-2.55,3.1-3.69,3.42C78,42,77.5,39.64,79,38.44c1.24-1,3.22-.63,4.65-.4.7.1,1-1,.3-1.09-2.34-.36-5.86-.67-6.78,2.16-.63,1.92.53,4.06,2.71,3.6a12.5,12.5,0,0,0,4.42-2.13A2.35,2.35,0,0,0,85.18,38c-1-3.33-4.88-2.23-7.16-1.19a.59.59,0,0,0-.25.64,3.61,3.61,0,0,0,3,3c2,.42,3.86-.61,5.51-1.53a.56.56,0,0,0-.43-1c-2.17.49-4.35.94-6.51,1.48A8.05,8.05,0,0,0,76,40.76a2.81,2.81,0,0,0,.16,4.61c4.7,3.12,10.59-2.49,12.23-6.54a.57.57,0,0,0-.39-.7A7.75,7.75,0,0,0,83.68,38c-.66.25-2.79,2.74-3.16,2.49-.1.34-.19.69-.29,1A19,19,0,0,0,88,40.16a.59.59,0,0,0,.4-.69c-.9-5.07-6.8-4.62-10.64-4.22-4.57.48-10.4.61-13.37-3.56-.41-.59-1.38,0-1,.56Z"/><path class="cls-8" d="M53.83,35.92A182.89,182.89,0,0,0,85.36,53.51c2.31,1,5,.68,6.4-1.68,1.16-2,.65-5.39-1.68-6.4A182.89,182.89,0,0,1,58.55,27.84c-2.07-1.44-5.19-.38-6.4,1.68a4.78,4.78,0,0,0,1.68,6.4Z"/><path class="cls-8" d="M181,20.14a405.82,405.82,0,0,1-59.7,40.32c-5.27,2.92-.55,11,4.72,8.09a420.16,420.16,0,0,0,61.6-41.79c2-1.6,1.66-5,0-6.62-1.94-1.94-4.65-1.6-6.62,0Z"/><path class="cls-8" d="M66.87,61.58q-1.74,9.14-3.47,18.28c-1.12,5.88-2,11.85-3.57,17.63C57.14,107.58,50,115.76,47.12,125.8s-.31,20.29,5.82,28.47c6.29,8.4,14.75,14.33,23.91,19.25,10.07,5.42,20.9,10.09,29,18.42,4.21,4.32,10.82-2.3,6.62-6.62-7.29-7.49-16.55-12.39-25.72-17.16-8.49-4.41-16.81-8.82-23.35-15.85-5.75-6.18-9.57-14.07-7.69-22.32,2.18-9.55,9-17.43,12.17-26.75,2.09-6.16,3-12.73,4.2-19.1l3.81-20.07a4.8,4.8,0,0,0-3.26-5.76c-2.29-.62-5.29.78-5.76,3.27Z"/><path class="cls-8" d="M152.63,54.4A17.83,17.83,0,0,1,159.9,61a53.31,53.31,0,0,1,4.76,9.65c3.33,8.45,7,17.34,7.72,26.47.39,4.73-.09,9.66,1.64,14.17,1.62,4.23,4.78,7.35,6.95,11.25,2,3.55,2.39,7.7,2.43,11.69,0,2-.05,4.07-.14,6.1-.08,1.67.12,3.15-1,4.26-1.81,1.74-4.41,3.07-6.5,4.51L169,153.75l-14.71,10.08a4.79,4.79,0,0,0-1.68,6.4c1.2,2.06,4.31,3.11,6.4,1.68,9.15-6.27,18.44-12.39,27.47-18.83a13.44,13.44,0,0,0,4.83-5.21c1.22-2.65,1.26-5.6,1.38-8.47a54.1,54.1,0,0,0-.93-14.59c-1.13-4.85-3.71-8.6-6.55-12.58a15.48,15.48,0,0,1-2.81-5.6,38.25,38.25,0,0,1-.49-7.1c-.37-10.5-3.95-20.35-7.69-30-3.44-8.94-7.72-18.7-16.83-23.16A4.8,4.8,0,0,0,151,48c-1.21,2.06-.61,5.29,1.67,6.4Z"/><path class="cls-8" d="M65.44,108.58a48.4,48.4,0,0,1-11,14,4.68,4.68,0,0,0,6.61,6.62A55.34,55.34,0,0,0,73.52,113.3a4.78,4.78,0,0,0-1.68-6.4,4.73,4.73,0,0,0-6.4,1.68Z"/><path class="cls-8" d="M166.67,109.38A42.71,42.71,0,0,1,173,130.19l3.44-4.51a2,2,0,0,1,1.71.41c-.44-.38-.55-.5-.32-.37-.12-.5-.51-1.08-.67-1.6a32.69,32.69,0,0,1-.92-4.46,31.58,31.58,0,0,0-2.64-9.59c-1.12-2.27-4.33-2.89-6.4-1.68a4.78,4.78,0,0,0-1.68,6.4c1.72,3.47,1.48,7.8,2.54,11.52,1.41,4.93,5.13,9.82,10.87,8.4a4.73,4.73,0,0,0,3.43-4.51,52.3,52.3,0,0,0-7.56-25.53c-3.13-5.15-11.23-.45-8.08,4.71Z"/><path class="cls-8" d="M91.54,423.42c3.76-6.79,4.14-14.49,4.14-22.09,0-6.87-.35-13.82,3-19.64,3-5.25-5.1-10-8.08-4.73-3.83,6.74-4.25,14.45-4.25,22,0,6.86.39,13.85-2.85,19.71-2.92,5.28,5.16,10,8.08,4.72Z"/><path class="cls-8" d="M92.1,419.1q4.38-12.21,8-24.65l-9.19-1.25A39.69,39.69,0,0,1,84,419.34L92.53,423q4.06-11.82,8.82-23.37c2.42-5.86,5.21-11.81,10.34-15.82,2-1.55,1.63-5,0-6.62-2-2-4.62-1.56-6.62,0C99,381.89,95.7,389,92.8,395.94c-3.37,8.07-6.45,16.26-9.3,24.52A4.65,4.65,0,0,0,86.21,426a4.73,4.73,0,0,0,5.84-1.91,47.78,47.78,0,0,0,8.22-30.86,4.74,4.74,0,0,0-4.06-4.6A4.69,4.69,0,0,0,91.08,392q-3.61,12.45-8,24.66c-.85,2.37,1,5.12,3.27,5.75a4.78,4.78,0,0,0,5.76-3.27Z"/><path class="cls-8" d="M91.57,412.11c-.87-10.17-6.7-18.67-11.37-27.46a233.73,233.73,0,0,1-12.33-26.82,4.83,4.83,0,0,0-5.76-3.27c-2.26.62-4.16,3.38-3.27,5.76a251.56,251.56,0,0,0,12.3,27.2c2.18,4.16,4.52,8.23,6.73,12.37,2,3.8,4,7.87,4.34,12.23a4.79,4.79,0,0,0,4.68,4.68c2.36,0,4.89-2.16,4.68-4.69Z"/><path class="cls-8" d="M177.28,417.52a166.17,166.17,0,0,1-20.05-31l-8.08,4.73c6.11,8.44,12.21,16.92,17.14,26.12,2.25,4.17,8.69,2.15,8.72-2.36a191.48,191.48,0,0,0-4.92-44.63,4.73,4.73,0,0,0-4.51-3.43,4.86,4.86,0,0,0-4.51,3.43,63.5,63.5,0,0,0-3.53,30.13c.32,2.51,1.92,4.68,4.68,4.68,2.28,0,5-2.16,4.68-4.68a57.45,57.45,0,0,1,3.19-27.64h-9A180.51,180.51,0,0,1,165.66,415l8.72-2.36c-4.94-9.2-11-17.68-17.15-26.12-1.48-2.05-4.07-3.05-6.4-1.68a4.77,4.77,0,0,0-1.68,6.4,176.53,176.53,0,0,0,21.51,32.94c1.61,2,5,1.66,6.62,0,1.93-1.94,1.61-4.66,0-6.62Z"/><path class="cls-8" d="M86.46,396.78c6,0,6-9.36,0-9.36s-6,9.36,0,9.36Z"/><path class="cls-8" d="M174.16,402.37c.72-5,.12-9.72,0-14.69-.07-3.07.11-6.58,2-8.85l-8-3.31c.68,12.85-4.09,25.41-2.56,38.22.3,2.51,1.93,4.68,4.68,4.68,2.34,0,4.92-2.15,4.68-4.68A102.06,102.06,0,0,1,180.86,368c.88-2.37-1-5.13-3.27-5.76a4.78,4.78,0,0,0-5.76,3.27,108.6,108.6,0,0,0-6.26,48.22h9.36c-.74-6.22.09-12.38,1-18.54,1-6.54,1.87-13,1.52-19.67a4.7,4.7,0,0,0-2.87-4.27c-1.6-.64-3.93-.49-5.11,1a21.73,21.73,0,0,0-4.67,13.15c-.23,4.81,1,9.73.3,14.51-.36,2.5.62,5,3.27,5.76,2.2.61,5.39-.74,5.75-3.26Z"/><path class="cls-8" d="M177.58,236.53c12,.35,24,.55,35.81-1.89a62.89,62.89,0,0,0,16.84-6c4.84-2.58,9.17-6,13.63-9.13,4.86-3.44,9.73-6.51,15.52-7.7,2.48-.51,3.9-3.44,3.27-5.76a4.78,4.78,0,0,0-5.76-3.27c-10.88,2.24-18.9,10.1-28,15.82-9.43,5.91-20.35,8-31.32,8.58-6.66.34-13.33.18-20,0-6-.18-6,9.18,0,9.36Z"/><path class="cls-8" d="M204.79,271.65c10-8.88,20-17.73,29.89-26.65,9.27-8.32,18.38-16.87,26.3-26.51a4.88,4.88,0,0,0,.73-5.67,4.71,4.71,0,0,0-5.29-2.15,215,215,0,0,0-62.05,34.39c-5.22,4.14-10.23,8.55-15,13.17C175,262.42,181.6,269,186,264.85A242,242,0,0,1,229.29,232l-6.87-2.8c.09.24.08.67.2.36.18-.49-.25.48-.16.33a10,10,0,0,1-.92,1.22c-1.29,1.48-2.83,2.79-4.25,4.15l-9.34,9-18.4,17.66,7.82,4.55c1.27-4.57,4-8.13,7.78-11.44a81.38,81.38,0,0,1,12.62-8.63,4.79,4.79,0,0,0,2.15-5.29,4.89,4.89,0,0,0-4.51-3.44,249.91,249.91,0,0,0-33.5-1.41c.79,2.9,1.58,5.81,2.36,8.71,16.31-8.16,33.88-15.58,52.5-14.24q-1.19-4.37-2.36-8.72l-31.22,16.49a4.68,4.68,0,1,0,4.72,8.08L239.13,230a4.75,4.75,0,0,0,2.15-5.29,4.82,4.82,0,0,0-4.51-3.43c-20.24-1.46-39.5,6.65-57.22,15.52-4.19,2.1-2.15,8.83,2.36,8.72a248.27,248.27,0,0,1,33.5,1.42c-.79-2.91-1.58-5.81-2.36-8.72-10.31,6.12-21.31,13.45-24.7,25.67-1.27,4.57,4.48,7.75,7.82,4.55l20.54-19.7c3.38-3.25,6.77-6.48,10.13-9.73s6.44-7.64,4.6-12.35c-1.07-2.75-4.05-4.47-6.87-2.79a253.13,253.13,0,0,0-45.23,34.36l6.62,6.62a204.54,204.54,0,0,1,55.56-38.08c5.68-2.65,11.48-5,17.39-7.08l-4.55-7.82c-7.92,9.64-17,18.19-26.3,26.52q-14.9,13.37-29.88,26.64a4.68,4.68,0,0,0,6.61,6.62Z"/><path class="cls-8" d="M165.79,229.09c11.21,2.41,22.65,4.79,34.17,4.64a62.56,62.56,0,0,0,17.31-2.49c5.74-1.74,11-4.62,16.32-7.37l18.65-9.68-5.68-7.35c-5.28,6.65-12.47,11.24-18.92,16.65a89.69,89.69,0,0,0-17.59,20.13,4.67,4.67,0,0,0,1.2,6c1.7,1.27,4.67,1.47,6.15-.37a27.58,27.58,0,0,1,18.8-10.43,4.8,4.8,0,0,0,4.68-4.68c0-2.36-2.15-4.9-4.68-4.68a36.56,36.56,0,0,0-25.42,13.17l7.35,5.67a81.5,81.5,0,0,1,16.61-18.64c6.32-5.23,13.28-9.76,18.44-16.24,1.44-1.83,1.92-4.19.36-6.15a4.73,4.73,0,0,0-6-1.2l-20.27,10.53c-6.12,3.18-12.06,5.93-18.92,7.08-13.29,2.23-27.08-.86-40.05-3.65a4.79,4.79,0,0,0-5.75,3.27,4.73,4.73,0,0,0,3.28,5.75Z"/><path class="cls-8" d="M256.31,204.93a28.55,28.55,0,0,0-8-23.1c-4.2-4.32-10.82,2.3-6.62,6.62A19.51,19.51,0,0,1,247,204.93c-.31,2.51,2.38,4.68,4.68,4.68,2.79,0,4.36-2.16,4.68-4.68Z"/><path class="cls-8" d="M256.11,200.72c3.38-.63,6.92-1.61,9.73-3.66a12.43,12.43,0,0,0,3.83-4.2,11.14,11.14,0,0,0,1-2.84,9,9,0,0,0,.22-1.13c0-.15.07-.3.1-.44a3.06,3.06,0,0,1-1.55,1.6H267c.05,0-.31-.23-.31-.28,0,.47.92,1.35,1.22,1.79q1.31,2,2.58,3.93,2.46,3.81,4.76,7.69l1.68-6.4q-12,8.06-24.66,15.22c-5.23,3-.52,11.07,4.73,8.08q12.6-7.16,24.65-15.22a4.77,4.77,0,0,0,1.68-6.4q-3.33-5.6-6.94-11c-1.27-1.9-2.47-4-4.4-5.33a6.35,6.35,0,0,0-7.45,0,7.7,7.7,0,0,0-2.75,5c-.06.3-.11.59-.18.89s-.23,1-.1.36c0,.23-.35.59,0,.15a7.37,7.37,0,0,1-.78.8c-.55.49.48-.32-.15.1-.32.21-.66.41-1,.6a4.55,4.55,0,0,1-1.36.58,36.88,36.88,0,0,1-4.55,1.13c-2.49.46-3.9,3.47-3.27,5.76a4.77,4.77,0,0,0,5.74,3.26Z"/><path class="cls-8" d="M263.82,195.78a81,81,0,0,0-8.33,8.45,4.82,4.82,0,0,0,0,6.62c1.68,1.68,5,1.93,6.62,0a82.14,82.14,0,0,1,8.33-8.46,4.71,4.71,0,0,0,0-6.61,4.76,4.76,0,0,0-6.62,0Z"/><path class="cls-8" d="M258.13,203.81c6,0,6-9.36,0-9.36s-6,9.36,0,9.36Z"/><path class="cls-8" d="M264.49,195c.31.44.62.88.88,1.34.14.23.26.47.38.71q.3.65.09.18c-.12-.32-.11-.25.06.18.09.26.17.51.25.77.14.52.25,1,.34,1.57.42,2.42,3.52,4,5.76,3.27a4.83,4.83,0,0,0,3.27-5.76,17.08,17.08,0,0,0-3-7c-1.44-2-4.13-3.14-6.4-1.67-2,1.26-3.21,4.28-1.67,6.4Z"/><path class="cls-8" d="M274.4,174c-.48-.33-1-.66-1.46-1a3.54,3.54,0,0,0-1.74-.56,4.77,4.77,0,0,0-4.66,2.24,4.68,4.68,0,0,0-.48,3.6l.48,1.12a4.64,4.64,0,0,0,1.67,1.68l1.47,1a3.37,3.37,0,0,0,1.74.55,3.57,3.57,0,0,0,1.86-.08,3.5,3.5,0,0,0,1.59-.84,3.63,3.63,0,0,0,1.21-1.31,4.75,4.75,0,0,0,.47-3.61c-.16-.37-.32-.74-.47-1.12A4.72,4.72,0,0,0,274.4,174Z"/><path class="cls-8" d="M276.89,175.82l-1.41-1a3.43,3.43,0,0,0-1.74-.55,3.6,3.6,0,0,0-1.87.08,5.23,5.23,0,0,0-2.79,2.15,4.71,4.71,0,0,0-.47,3.61c.15.37.31.74.47,1.12a4.61,4.61,0,0,0,1.67,1.67l1.42,1.05a4.53,4.53,0,0,0,5.19-.36,3.58,3.58,0,0,0,1.21-1.32,4.72,4.72,0,0,0,.47-3.6c-.16-.38-.32-.75-.47-1.12a4.74,4.74,0,0,0-1.68-1.68Z"/><path class="cls-8" d="M288.12,186.7a60.7,60.7,0,0,0-7.9-8.21,4.79,4.79,0,0,0-6.61,0c-1.69,1.68-1.92,5,0,6.61a61.92,61.92,0,0,1,7.89,8.22c1.58,2,5,1.65,6.62,0,2-1.95,1.58-4.63,0-6.62Z"/><path class="cls-8" d="M274.15,183.83a30.75,30.75,0,0,0,11,13.95c3.77,2.79,8.93-2.65,6.4-6.4-.66-1-1.33-1.92-2-2.86-1.51-2-4-3.06-6.4-1.68-2,1.17-3.2,4.37-1.68,6.4.71.94,1.39,1.89,2,2.87l6.4-6.41a19.63,19.63,0,0,1-6.71-8.36,4.82,4.82,0,0,0-5.76-3.27c-2.26.62-4.17,3.38-3.26,5.76Z"/><path class="cls-8" d="M274.47,186.66c.61-1.45,1.22-2.89,1.84-4.34h-8.08C272.06,187.93,276,193.5,280,199c2.31,3.17,7.34,3,8.55-1.12s-1-7.29-3.41-10.26c-2.18-2.68-4.09-5.56-6.1-8.37a4.81,4.81,0,0,0-6.4-1.67,4.75,4.75,0,0,0-1.68,6.4,28.5,28.5,0,0,0,10.87,10.81,4.71,4.71,0,0,0,6.4-6.4l-2.82-5c-3-5.24-11.05-.53-8.08,4.73l2.82,5,6.4-6.4a19.15,19.15,0,0,1-7.51-7.45L270.92,184c1.78,2.49,3.49,5,5.34,7.45.84,1.09,1.74,2.12,2.56,3.22-.14-.19.47.74.57.87.67.91,0,.29.1-.11l8.55-1.12q-6-8.24-11.73-16.66c-1.74-2.56-6.59-3.51-8.08,0l-1.84,4.33c-1,2.33-.7,5,1.67,6.4,2,1.15,5.41.66,6.41-1.68Z"/><path class="cls-8" d="M264.8,181.11c.08-1.1,0-1.25-.14-.45,0-.12,0-.19.11-.22a8,8,0,0,1-1.18,1.22c-1,.92-2.14,1.71-3.22,2.54l-8,6.16c-2,1.54-3.07,4-1.67,6.4,1.15,2,4.38,3.23,6.4,1.68L268,190.08c3.87-3,6.6-6.3,5.87-11.45-.35-2.51-3.54-3.88-5.75-3.27-2.7.74-3.63,3.24-3.28,5.75Z"/><path class="cls-8" d="M77.29,222.58c-22.44,8.72-44.94,17.33-67.76,25a4.78,4.78,0,0,0-3.27,5.75A4.72,4.72,0,0,0,12,256.64c22.82-7.71,45.32-16.31,67.76-25,2.36-.92,4-3.14,3.27-5.76-.62-2.25-3.39-4.19-5.76-3.27Z"/><path class="cls-8" d="M14.15,278.49a127.15,127.15,0,0,1,13.52,23.63c1,2.31,4.39,2.85,6.4,1.68,2.38-1.39,2.71-4.08,1.67-6.4a127.19,127.19,0,0,0-13.51-23.64c-1.49-2-4.06-3-6.4-1.67-2,1.17-3.18,4.35-1.68,6.4Z"/><path class="cls-8" d="M9.31,323.37a2,2,0,0,1,.47-.12l-1.24.16a2.41,2.41,0,0,1,.38,0l-1.24-.16a1.83,1.83,0,0,1,.46.12L7,322.89l.09,0a3.45,3.45,0,0,0,1.74.56,3.6,3.6,0,0,0,1.87-.08,3.6,3.6,0,0,0,1.59-.84,3.47,3.47,0,0,0,1.2-1.32,4.73,4.73,0,0,0,.48-3.6l-.48-1.12a4.72,4.72,0,0,0-1.67-1.68,8.5,8.5,0,0,0-1.44-.58l-.19,0A10.8,10.8,0,0,0,8.82,314a8.75,8.75,0,0,0-1.53.18,2.7,2.7,0,0,0-.47.12,3.55,3.55,0,0,0-1.59.84A3.52,3.52,0,0,0,4,316.49a3.54,3.54,0,0,0-.56,1.74,3.61,3.61,0,0,0,.09,1.87,4.69,4.69,0,0,0,2.14,2.79l1.12.48a4.78,4.78,0,0,0,2.49,0Z"/><path class="cls-8" d="M35,318.88c.86-2.31,1.42-4.75,2.39-7-.29.69.45-.85.53-1s1-1.54.53-.92c.13-.15,1.34-1.25.7-.78a7.68,7.68,0,0,1,.78-.47c-.42.13-.35.1.2-.08l-4.55-7.82c-4.87,5.85-11.85,10.09-19.17,11.07l4.68,4.67c0-.42,0-.85,0-1.28.07-.74-.29.78.12-.49.2-.63.46-1.38.48-1.4.19-.36.39-.71.61-1.05.1-.14.45-.59.14-.22.26-.32.56-.59.84-.89.07-.07.82-.74.34-.36a10.5,10.5,0,0,1,1.87-1.14c.74-.36-.93.27.45-.17.31-.1.63-.17.94-.27a6.68,6.68,0,0,1,3.42.16q-.55-4.28-1.12-8.55c-4.32,2.42-8.79,4.55-13.3,6.58-2.26,1-4.5,2.09-6.79,3a23.91,23.91,0,0,0-6.29,4c-2,1.6-1.67,5,0,6.61,1.93,1.94,4.66,1.61,6.61,0,3.23-2.65,7.85-4,11.83-5.81,4.3-1.95,8.55-4,12.67-6.3,3.55-2,2.71-7.48-1.12-8.55a16.78,16.78,0,0,0-21.08,16.13c0,2.28,2.14,5,4.68,4.68A40,40,0,0,0,42.2,307.41a4.85,4.85,0,0,0,.73-5.67,4.7,4.7,0,0,0-5.28-2.15A14.2,14.2,0,0,0,29.41,307c-1.47,3-2.26,6.28-3.44,9.42-.88,2.37,1,5.13,3.27,5.76A4.79,4.79,0,0,0,35,318.88Z"/><path class="cls-8" d="M25.5,295.72A75.14,75.14,0,0,1,11.62,305c-2.41,1.3-5,2.33-7,4.26a10.67,10.67,0,0,0-3.29,8.28A4.78,4.78,0,0,0,6,322.2c2.4,0,4.84-2.14,4.68-4.67-.07-1-.06-.11,0-.95,0,.49.32-.54,0-.16a3.74,3.74,0,0,1,1.78-1.37c2.23-1.2,4.5-2.31,6.69-3.57a82.09,82.09,0,0,0,12.91-9.14c1.91-1.66,1.7-4.92,0-6.62a4.78,4.78,0,0,0-6.62,0Z"/><path class="cls-8" d="M10.32,263.5a153.57,153.57,0,0,1,44,43.24l1.68-6.4a5.1,5.1,0,0,1-1.56.91c-1.21.46.24.06-.48.1a7.7,7.7,0,0,1-1.27,0c.61.07-.23-.06-.3-.08a10.22,10.22,0,0,1-1.52-.46c.2.08.53.26-.37-.19a12.33,12.33,0,0,1-1.41-.82c-2.59-1.74-4.61-5.42-6.45-8.27a37.44,37.44,0,0,0-8.05-9.28c-2.73-2.18-6.27-4.48-8.66-6.39a27.87,27.87,0,0,1-3.64-3.4A10.62,10.62,0,0,1,20.26,269a4.44,4.44,0,0,1-.12-3.22c-.22.65.09-.24.22-.4.36-.49-.64.28.34-.34-.39.25.43-.18.4-.17s1-.23,1.31-.29c1.62-.31,3.67-.38,5.52-.84a25.21,25.21,0,0,0,6.53-2.82c3.92-2.29,7.63-4.95,11.52-7.29A201.66,201.66,0,0,1,73,239.92l-3.6-8.55c-17.4,8-35,16-53.87,19.8l2.49,9q26.22-7.51,52-16.59a4.79,4.79,0,0,0,3.27-5.75c-.64-2.31-3.36-4.11-5.76-3.27q-25.74,9.06-52,16.59a4.68,4.68,0,1,0,2.49,9c19.66-3.92,38-12.38,56.1-20.74,4.75-2.19,1.31-10.58-3.6-8.55A218.12,218.12,0,0,0,42.14,245c-4.29,2.55-8.35,5.51-12.67,8a16.48,16.48,0,0,1-5.12,2c-2.76.46-5.43.5-8,1.83-4.26,2.25-6.21,7.06-5.7,11.71a19.89,19.89,0,0,0,6.47,12.1c3,2.86,6.54,5.1,9.87,7.54a32.38,32.38,0,0,1,7.89,8.64c2.83,4.43,5.7,9.05,10.42,11.68s11,3.45,15.42,0c1.9-1.47,3.23-4.09,1.68-6.4A165,165,0,0,0,15,255.42a4.68,4.68,0,1,0-4.72,8.08Z"/><path class="cls-8" d="M88.7,220.5c9.52-1.88,19.09-3.36,28.83-2.61,2.52.19,4.68-2.29,4.68-4.68a4.77,4.77,0,0,0-4.68-4.68c-10.52-.81-21,.91-31.32,2.95-2.48.49-3.91,3.45-3.27,5.76a4.76,4.76,0,0,0,5.76,3.26Z"/><path class="cls-8" d="M86.18,221l1.26-.25a4.53,4.53,0,0,0,3.35-3.89A3.6,3.6,0,0,0,90.7,215a4.67,4.67,0,0,0-2.15-2.79l-1.11-.48a4.78,4.78,0,0,0-2.49,0l-1.26.26a3.4,3.4,0,0,0-1.59.84,3.55,3.55,0,0,0-1.21,1.31,3.43,3.43,0,0,0-.55,1.74,3.61,3.61,0,0,0,.08,1.87,4.74,4.74,0,0,0,2.15,2.79l1.12.47a4.78,4.78,0,0,0,2.49,0Z"/><path class="cls-8" d="M94.2,216.51a243,243,0,0,0-31.12,4c-2.48.49-3.9,3.45-3.27,5.76a4.78,4.78,0,0,0,5.76,3.27,222.42,222.42,0,0,1,28.63-3.7,4.78,4.78,0,0,0,4.68-4.67c0-2.41-2.15-4.85-4.68-4.68Z"/><path class="cls-8" d="M25.36,254.52c2.38,7,4.48,14.21,7.22,21.09a38.28,38.28,0,0,0,4.77,8.31,32.61,32.61,0,0,1,2.39,3.68,7.67,7.67,0,0,1,.75,2.67c.46-1.1.91-2.2,1.37-3.31l-.21.21,2.07-1.2-.29.07h2.49l.56.26L48.15,288,48,287.7c-1.08-2.28-4.36-2.87-6.4-1.67-2.35,1.37-2.76,4.1-1.68,6.4a5.41,5.41,0,0,0,7.37,2.09c2.79-1.63,2.77-4.83,2.11-7.6-.89-3.82-3.46-6.84-5.63-10-2.29-3.33-3.37-7.07-4.66-10.87l-4.77-14a4.78,4.78,0,0,0-5.75-3.27,4.72,4.72,0,0,0-3.26,5.75Z"/><path class="cls-8" d="M23.88,249.54A25.78,25.78,0,0,0,47.71,243c4.34-4.19-2.29-10.81-6.62-6.61a16.15,16.15,0,0,1-14.72,4.13,4.79,4.79,0,0,0-5.76,3.27,4.74,4.74,0,0,0,3.27,5.76Z"/><path class="cls-8" d="M35.49,243Q32,240.28,34,238.54c.46-.41.42-.43-.11,0-.35.17-.68.39-1,.58A30.18,30.18,0,0,1,30,240.45a36,36,0,0,1-6.83,1.94c-2.48.47-3.9,3.46-3.26,5.75a4.77,4.77,0,0,0,5.75,3.27,36.43,36.43,0,0,0,13.18-5c2.14-1.42,4-3.55,3.89-6.28A6.3,6.3,0,0,0,38,234a4.78,4.78,0,0,0-5.75,3.27A4.71,4.71,0,0,0,35.49,243Z"/><path class="cls-8" d="M14.38,255A686,686,0,0,1,90.87,222.2q11.14-4,22.43-7.62a4.8,4.8,0,0,0,3.27-5.76,4.75,4.75,0,0,0-5.76-3.27,708.64,708.64,0,0,0-79.49,31q-10.92,5-21.66,10.43A4.72,4.72,0,0,0,8,253.34a4.78,4.78,0,0,0,6.4,1.68Z"/><path class="cls-8" d="M11,256.35C35.35,250.11,55.69,234,79.9,227.28A65.91,65.91,0,0,1,100,224.75a4.68,4.68,0,0,0,0-9.36c-26.4-1-49,14.28-72,24.84a115.85,115.85,0,0,1-19.57,7.09c-5.83,1.49-3.36,10.52,2.49,9Z"/><path class="cls-8" d="M111.46,204a398.41,398.41,0,0,0-86.35,30.88Q13.5,240.64,2.27,247.14c-5.22,3-.51,11.1,4.72,8.08a387.2,387.2,0,0,1,82.25-35.6q12.24-3.69,24.71-6.56a4.68,4.68,0,0,0-2.49-9Z"/><path class="cls-8" d="M54.82,242.63A89,89,0,0,0,23.14,250l4.73,8.08a65.82,65.82,0,0,1,18.79-5.4,70.5,70.5,0,0,1,10.17-.51c3.89.08,7-.67,9.41-3.86,1.11-1.45.67-3.91-.37-5.2A4.69,4.69,0,0,0,61,241.46a342,342,0,0,1-42.46,9.32c-5.16.79-4,9.84,1.24,9.19l12-1.48a44.36,44.36,0,0,0,12.61-3,63.54,63.54,0,0,1,10.19-3.68c3.92-1,7.92-1.53,11.9-2.1q-2.26-3.91-4.55-7.82c-4.5,4.12-10.6,5.74-16.65,6.85-7.45,1.36-15,2.21-22.5,3.26-2.5.35-3.87,3.55-3.27,5.76.74,2.69,3.24,3.62,5.76,3.27,7.88-1.11,15.86-1.95,23.66-3.49,7.2-1.42,14.14-4,19.62-9a4.75,4.75,0,0,0,.73-5.67c-1.14-1.94-3.2-2.45-5.29-2.15-7.83,1.13-15.19,2.62-22.43,5.88-6.72,3-14.53,3.14-21.76,4q.63,4.6,1.24,9.19a340.16,340.16,0,0,0,42.46-9.32l-5.28-6.88a1.71,1.71,0,0,1,.84-.82c-.56.12-.65.15-.28.06-.51,0-1,0-1.55,0-1.59,0-3.17,0-4.76,0A80.23,80.23,0,0,0,42,244a76.24,76.24,0,0,0-18.9,6c-2.3,1.06-2.86,4.38-1.68,6.4,1.4,2.4,4.08,2.69,6.41,1.68a76.35,76.35,0,0,1,27-6.12,4.77,4.77,0,0,0,4.68-4.68,4.72,4.72,0,0,0-4.68-4.67Z"/><path class="cls-8" d="M36.87,323l7.29,18.89c.91,2.35,3.14,4,5.76,3.27,2.25-.62,4.18-3.39,3.26-5.76q-3.63-9.45-7.28-18.89c-.91-2.36-3.15-4-5.76-3.27-2.25.62-4.19,3.39-3.27,5.76Z"/><circle class="cls-9" cx="103.29" cy="92.26" r="16.4"/><circle class="cls-9" cx="97.98" cy="93.69" r="22.32"/><circle class="cls-9" cx="145.55" cy="93.93" r="21.06"/><ellipse class="cls-8" cx="96.96" cy="95.12" rx="25.17" ry="30.61"/><circle class="cls-9" cx="93.6" cy="93.4" r="22.21"/><circle class="cls-9" cx="146.56" cy="94.14" r="22.21"/><circle class="cls-7" cx="93.89" cy="94.79" r="12.7"/><circle class="cls-7" cx="146.25" cy="95.55" r="12.7"/><circle cx="93.85" cy="94.21" r="8.37"/><circle cx="146.38" cy="95.32" r="8.37"/><ellipse class="cls-10" cx="124.78" cy="307.6" rx="64.93" ry="71.73"/><path class="cls-11" d="M65,142.17c7.89,15.18,24.06,24.34,40.41,27.58,9.8,1.95,20.2,2.11,29.77-1.08a51.49,51.49,0,0,0,20.44-12.83,50.75,50.75,0,0,0,13.18-23.56c.84-3.51-4.58-5-5.41-1.49A46.09,46.09,0,0,1,136,162.43c-15.55,6.13-34.46,2.92-48.66-5.34a44.48,44.48,0,0,1-17.45-17.75c-1.67-3.21-6.51-.37-4.85,2.83Z"/><path class="cls-11" d="M160.8,134.64h16.59c3.62,0,3.62-5.61,0-5.61H160.8c-3.61,0-3.62,5.61,0,5.61Z"/><path class="cls-8" d="M159.54,133.81a21.32,21.32,0,0,1,17.58,2.81c3.63,2.39,7-3.44,3.4-5.82a28,28,0,0,0-22.78-3.49c-4.17,1.17-2.39,7.67,1.8,6.5Z"/><path class="cls-8" d="M159.92,135.05a11.75,11.75,0,0,0,4.26.21c.63-.07,1.28,0,1.9-.13-.52.07-.69-1.17-.4.07a9.25,9.25,0,0,0,6.82,6.68c4.21,1.05,6-5.45,1.79-6.49a2.66,2.66,0,0,1-2.11-2,7.07,7.07,0,0,0-2.78-4.13,7.17,7.17,0,0,0-4.24-.86,10.78,10.78,0,0,1-3.44.13c-4.2-1.14-6,5.36-1.8,6.5Z"/><path class="cls-8" d="M133.33,123.12c7-.85,14-1.41,21.08-1.64q5.1-.18,10.2-.12c1.71,0,3.41,0,5.11.1s3.62-.2,5.11.31l-1.49-.87.33.26-.87-1.48c0,.12.08.25.12.37l.87-3.28,1.08-.24c-4.21-1-6,5.51-1.79,6.5a5.6,5.6,0,0,0,5.47-1.49,3.35,3.35,0,0,0,.86-3.28c-1.31-4.19-6.55-3.44-10.06-3.55q-6-.18-12,0c-8,.17-16,.76-24,1.72a3.47,3.47,0,0,0-3.36,3.37c0,1.65,1.55,3.59,3.37,3.37Z"/><path class="cls-8" d="M79.55,122.64l18.28,0,9,0c1.61,0,5.25-.68,6.58.54l2.39-5.75q-19.43.66-38.85-.17.45,3.3.89,6.62a159.34,159.34,0,0,1,18.29-2.69c3.11-.27,6.21-.46,9.33-.55,1.43,0,2.87-.07,4.31-.08,1,0,3.61-.37,4.27,0-.4-.41-.8-.81-1.21-1.21l0,0v-1.79c0,.14,0,.27-.07.41.28-.5.57-1,.86-1.49l-.28.29c-3,3.11,1.74,7.88,4.77,4.77a4.33,4.33,0,0,0,.64-5.39c-1.2-2-3.34-2.22-5.43-2.27-4.18-.09-8.38,0-12.56.27A174.74,174.74,0,0,0,76,117.33c-3.86.78-2.76,6.46.89,6.62q19.42.83,38.85.17c2.78-.09,4.63-3.7,2.38-5.75s-5-2.5-8-2.52c-3.36,0-6.72,0-10.07,0l-20.53,0c-4.33,0-4.33,6.74,0,6.74Z"/><path class="cls-11" d="M89.85,92.49c3.85,0,3.86-6,0-6s-3.86,6,0,6Z"/><path class="cls-11" d="M89.85,92.49c3.85,0,3.86-6,0-6s-3.86,6,0,6Z"/><path class="cls-11" d="M89.85,92.49c3.85,0,3.86-6,0-6s-3.86,6,0,6Z"/><path class="cls-11" d="M89.85,92.49c3.85,0,3.86-6,0-6s-3.86,6,0,6Z"/><path class="cls-11" d="M89.85,92.49c3.85,0,3.86-6,0-6s-3.86,6,0,6Z"/><path class="cls-11" d="M89.85,92.49c3.85,0,3.86-6,0-6s-3.86,6,0,6Z"/><path class="cls-11" d="M89.85,92.49c3.85,0,3.86-6,0-6s-3.86,6,0,6Z"/><path class="cls-11" d="M89.85,92.49c3.85,0,3.86-6,0-6s-3.86,6,0,6Z"/><path class="cls-9" d="M89.85,92.49c3.85,0,3.86-6,0-6s-3.86,6,0,6Z"/><path class="cls-9" d="M89.85,92.49c3.85,0,3.86-6,0-6s-3.86,6,0,6Z"/><path class="cls-9" d="M89.85,92.49c3.85,0,3.86-6,0-6s-3.86,6,0,6Z"/><path class="cls-9" d="M89.85,92.49c3.85,0,3.86-6,0-6s-3.86,6,0,6Z"/><path class="cls-9" d="M89.85,92.49c3.85,0,3.86-6,0-6s-3.86,6,0,6Z"/><path class="cls-9" d="M89.85,92.49c3.85,0,3.86-6,0-6s-3.86,6,0,6Z"/><path class="cls-9" d="M141.92,92.49c3.85,0,3.86-6,0-6s-3.86,6,0,6Z"/><path class="cls-9" d="M141.92,92.49c3.85,0,3.86-6,0-6s-3.86,6,0,6Z"/><path class="cls-9" d="M141.92,92.49c3.85,0,3.86-6,0-6s-3.86,6,0,6Z"/><path class="cls-9" d="M141.92,92.49c3.85,0,3.86-6,0-6s-3.86,6,0,6Z"/><path class="cls-9" d="M141.92,92.49c3.85,0,3.86-6,0-6s-3.86,6,0,6Z"/><path class="cls-9" d="M141.92,92.49c3.85,0,3.86-6,0-6s-3.86,6,0,6Z"/><path class="cls-9" d="M141.92,92.49c3.85,0,3.86-6,0-6s-3.86,6,0,6Z"/><path class="cls-8" d="M185.79,126.39c.64.44.56,1.48.76,2.15.3,1,.9,1.81,1.25,2.75.87,2.36.85,5.26,1,7.73s.39,5.12-.17,7.46c-.65,2.68-2.18,5.31-3.29,7.83a3.11,3.11,0,0,0,1.08,4.1c1.27.74,3.44.41,4.1-1.08,1.37-3.13,3.38-6.51,4-9.89a39.59,39.59,0,0,0,.16-9.85c-.21-3.18-.38-6.56-1.74-9.49-.5-1.09-.73-2.14-1.14-3.25a7.6,7.6,0,0,0-3-3.63c-3.17-2.22-6.16,3-3,5.17Z"/><path class="cls-8" d="M186.12,126.69c.3.24.06.07,0-.12.14.34,0,.09,0-.1.09.34.2.69.32,1a10.34,10.34,0,0,0,.61,1.41,3.26,3.26,0,0,0,.27.48c.15.19,0-.19,0-.37.19,1.55,1.24,3.07,3,3,1.46-.06,3.2-1.33,3-3a7.24,7.24,0,0,0-.74-2.53,3.84,3.84,0,0,0-.33-.6c-.11-.2-.1-.16,0,.13a3.38,3.38,0,0,1-.11-.34,6.2,6.2,0,0,0-1.75-3.21,3.06,3.06,0,0,0-4.23,0c-1,1.09-1.31,3.19,0,4.23Z"/><path class="cls-8" d="M185.9,126c1.45,2.57,1.14,5.73,1,8.59a10.32,10.32,0,0,0,.39,4.42,28.89,28.89,0,0,1,1.35,4.57c.95,5.36-.39,11.17-4.41,15-2.82,2.64,1.43,6.87,4.23,4.23,5-4.71,7.07-11.91,6.27-18.64a25.88,25.88,0,0,0-1.18-5.44,10.48,10.48,0,0,1-.8-2.28,20.66,20.66,0,0,1,.17-2.48c.14-3.83.1-7.54-1.83-10.95s-7.07-.34-5.17,3Z"/><path class="cls-8" d="M177.43,124.57a16.16,16.16,0,0,1-3.55,3.83l4.7.6-.18-.41c.13.51.27,1,.4,1.51,0-1,1.11-2.81,1.66-3.55l-5.47-.72c.23,1-1.07,2.82-1.61,3.65a6.31,6.31,0,0,1-1.23,1.49c-.28.24-.87.55-.81.57l1.33.77-.12-.18c-.64-1.48-2.82-1.82-4.1-1.07a3.06,3.06,0,0,0-1.07,4.09c1.87,4.32,7.27,2,9.56-.52s4.67-6.72,3.81-10.39c-.64-2.75-4.05-2.63-5.47-.71a19,19,0,0,0-2.08,4.39,5,5,0,0,0,.2,4.11c.86,1.95,3.37,1.67,4.7.61a20.76,20.76,0,0,0,4.49-5c2.11-3.26-3.07-6.26-5.16-3Z"/><path class="cls-8" d="M157.62,138.07c2.49-.19,4.4-2.16,6.95-1.83,1.07.13,1.65.36,2.05,1.27a8.48,8.48,0,0,1,.46,3.77c-.19,3.85,5.8,3.84,6,0s-.85-8.38-4.64-10.08a11.23,11.23,0,0,0-5.36-.94,11.53,11.53,0,0,0-2.85.57c-.73.25-1.86,1.19-2.6,1.25-3.82.29-3.85,6.28,0,6Z"/><path class="cls-8" d="M159,138.18c3.85,0,3.86-6,0-6s-3.86,6,0,6Z"/><path class="cls-8" d="M159.34,138c3.86,0,3.86-6,0-6s-3.86,6,0,6Z"/><path class="cls-8" d="M159.33,136.64a9,9,0,0,1,4-2.16,3,3,0,0,0-1.59-5.78,15.51,15.51,0,0,0-6.63,3.7,3,3,0,0,0,4.24,4.24Z"/><path class="cls-8" d="M172.85,138.34a8.52,8.52,0,0,1-.88-2.18,9.4,9.4,0,0,0-1.82-2.72,9.59,9.59,0,0,0-5.94-2.59,10.68,10.68,0,0,0-6.14.8c-1.83,1-2.42,2.88-3.9,4.15l4.71,3.63a7.63,7.63,0,0,1,5.67-2.88c-.51-1.86-1-3.72-1.52-5.58a29.2,29.2,0,0,0-6.93,4.9c-1.93,1.71-3.93,3.46-5,5.84l5.47,2.3c.59-2.19-.23-4.88,1.54-6.6s4.4-1.75,6.69-1.62c-.26-2-.53-3.93-.79-5.88a26.79,26.79,0,0,0-4,1c-3.13,1-2.7,5.89.79,5.88,1.45,0,4.56.19,5.51,1.54a5.51,5.51,0,0,1,.36,1.76,18.05,18.05,0,0,1,.13,3.6h6a16.63,16.63,0,0,0-2.61-9.88,6.79,6.79,0,0,0-3.74-3c-1.35-.36-2.62-1.31-4.06-1.28a3.76,3.76,0,0,0-3.66,2.94c-.43,2,.86,3.33,2.44,4.29,2.34,1.43,4.82,2.82,4.19,6-.51,2.62,3,5.47,5,2.91,2.9-3.61,1.68-8.28-2-10.81-3.23-2.2-8.28-3.49-11.16-.11a3,3,0,0,0,2.91,5c1.26-.22,3.35-1,4.3.13.63.73,1.38,3.1.81,3.86l1.07-1.07-.36.22c-3.27,2-.26,7.22,3,5.18,3.64-2.27,2.64-8,.71-11.11-2.6-4.19-6.9-3.71-11.14-3l2.91,5c.63-.74,2.05,0,3,.49.47.24,2.16,1.45,1.76,2l5,2.91a11.11,11.11,0,0,0-1.34-8.16c-1.62-2.58-4.14-3.48-6.46-5.21l1.08,1.08-.21-.35c.1.76.2,1.53.31,2.3l.06-.37-.77,1.33.29-.26-1.32.77,0,0-1.52-.41a12.23,12.23,0,0,0,2.62,1.28c1,.25,1,.08,1.54,1.08a11.29,11.29,0,0,1,1.36,6.14c-.15,3.85,5.82,3.84,6,0,.14-3.07,0-7.49-2.43-9.74s-6.26-3.16-9.56-3.15q.41,2.94.8,5.88a28.08,28.08,0,0,1,4-1c3.48-.59,2.4-5.7-.8-5.88-3.76-.21-7.62.49-10.53,3a9.91,9.91,0,0,0-2.76,4c-.67,1.83-.23,3.75-.71,5.57-.85,3.17,4,5.47,5.47,2.31.9-1.93,2.54-3.24,4.1-4.63a23.88,23.88,0,0,1,5.72-4c2.71-1.27,1.36-5.72-1.51-5.58a14.06,14.06,0,0,0-10.84,5.84,3,3,0,0,0,.77,3.86,3,3,0,0,0,3.93-.24c.92-.79,1.46-2.43,2.43-3.05.78-.51,2.28-.3,3.14-.16,3,.49,2.91,3.77,4.63,5.76,2.54,2.92,6.76-1.33,4.25-4.23Z"/><path class="cls-8" d="M51.83,147.34a21.43,21.43,0,0,0-.7-6.13c-.55-2-.11-4,.15-6.07.11-.93.16-1.89.34-2.82a6.61,6.61,0,0,1,.77-1.7c.9-1.78.9-3.38,2.41-4.87-1.67-1-3.33-2-5-2.91-.79,2.23-1.87,4.18-2.39,6.54a53.89,53.89,0,0,0-1.11,8,52.58,52.58,0,0,0,1.42,15.56c.89,3.75,6.67,2.16,5.77-1.59a46.9,46.9,0,0,1-1.2-14,44.91,44.91,0,0,1,1-6.73c.5-2.24,1.56-4.08,2.31-6.21,1-2.92-3-4.92-5-2.92a12.43,12.43,0,0,0-3.34,5.63c-.26.92-.75,1.53-1.08,2.41a15.1,15.1,0,0,0-.6,3.48c-.29,2.29-.9,4.8-.72,7.11a22.13,22.13,0,0,0,.79,3.59,14.56,14.56,0,0,1,.22,3.61c-.07,3.86,5.92,3.86,6,0Z"/><path class="cls-8" d="M45.25,139.34a33.53,33.53,0,0,0-.49,7.68c.2,2.6,1.32,5,2.25,7.36a3.09,3.09,0,0,0,3.68,2.1,3,3,0,0,0,2.09-3.69c-.7-1.82-1.77-3.81-2-5.77a22.54,22.54,0,0,1,.27-6.08,3.09,3.09,0,0,0-2.09-3.69c-1.41-.39-3.43.48-3.68,2.09Z"/><path class="cls-8" d="M47.73,144.1c3.86,0,3.86-6,0-6s-3.86,6,0,6Z"/><path class="cls-8" d="M47.67,144.28c3.86,0,3.86-6,0-6s-3.86,6,0,6Z"/><path class="cls-8" d="M47.5,145.08c3.86,0,3.86-6,0-6s-3.86,6,0,6Z"/><path class="cls-8" d="M47.61,143.3c3.86,0,3.86-6,0-6s-3.85,6,0,6Z"/><path class="cls-8" d="M49.16,132.55c3.86,0,3.86-6,0-6s-3.86,6,0,6Z"/><path class="cls-8" d="M49.16,132.55c3.86,0,3.86-6,0-6s-3.86,6,0,6Z"/><path class="cls-8" d="M49,132.55c3.85,0,3.86-6,0-6s-3.86,6,0,6Z"/><path class="cls-8" d="M49.22,131.34c3.85,0,3.86-6,0-6s-3.86,6,0,6Z"/><path class="cls-8" d="M49.39,130.25c3.85,0,3.86-6,0-6s-3.86,6,0,6Z"/><path class="cls-8" d="M49.73,129.17c3.86,0,3.86-6,0-6s-3.86,6,0,6Z"/><path class="cls-8" d="M50.42,127.91c3.85,0,3.86-6,0-6s-3.86,6,0,6Z"/><path class="cls-8" d="M50.13,128.42c3.86,0,3.86-6,0-6s-3.86,6,0,6Z"/><path class="cls-8" d="M77.45,41.64c18-2.47,37.64-5.07,54.82,2.74a3.09,3.09,0,0,0,4.1-1.07,3,3,0,0,0-1.07-4.1c-18.87-8.58-39.57-6.06-59.44-3.35-1.6.23-2.48,2.28-2.09,3.69.47,1.73,2.07,2.31,3.68,2.09Z"/><path class="cls-8" d="M162.06,40.75a41.38,41.38,0,0,0-7.93,16.48c-.84,3.75,4.94,5.35,5.78,1.59A34.65,34.65,0,0,1,166.29,45a3.09,3.09,0,0,0,0-4.24c-1-1-3.23-1.28-4.23,0Z"/><path class="cls-8" d="M178.62,26.55c.27-.64.31-.7.75-1a24.26,24.26,0,0,1,2.18-1.21,9.37,9.37,0,0,0,4.08-3.65c1.82-3.4-3.35-6.43-5.17-3-.19.34,0,.23-.49.63.3-.26-.35.25-.43.3-.71.44-1.47.8-2.21,1.2a8.37,8.37,0,0,0-3.89,3.73,3.1,3.1,0,0,0,1.08,4.1c1.26.74,3.46.42,4.1-1.07Z"/><path class="cls-8" d="M54,33.55c3.86,0,3.86-6,0-6s-3.86,6,0,6Z"/><path class="cls-8" d="M52.65,33.55c3.86,0,3.86-6,0-6s-3.86,6,0,6Z"/><path class="cls-8" d="M209.81,232.72l-7.6,1.83c-2.41.58-5.12,1.63-7.62,1.54-2.14-.07-4-1.25-5.71-2.42-2.12-1.44-4.13-3-6.1-4.63-.45,1.67-.88,3.33-1.33,5,3.35-1.12,6.69.26,9.91,1.22s6.94,1.2,10,2.72l.72-5.47c-2.84,1.11-5.73-.47-8.41-1.42-1.57-.56-3.18-1.05-4.79-1.46-1.19-.31-3.11-.33-4.06-1l1.07,1.07-.21-.38-1.08,4.1c1.66-1.12,3.77-.07,5.45.56a13.27,13.27,0,0,0,7.56,1c3.78-.73,2.18-6.51-1.59-5.77-2.37.46-4.92-1.38-7.18-1.89a9.09,9.09,0,0,0-7.26,1,3.07,3.07,0,0,0-1.07,4.1c1,1.84,2.78,2.16,4.69,2.58a55.34,55.34,0,0,1,6.55,1.83c3.84,1.34,7.86,3.13,11.92,1.54,2.17-.85,3.26-4.23.72-5.47-3.81-1.88-8.07-2.3-12.11-3.53s-8.25-2.43-12.44-1c-2,.65-3.18,3.48-1.32,5,4.2,3.47,9.09,8,14.71,8.7,3,.38,6-.55,8.82-1.24l9.34-2.25c3.73-.9,2.14-6.67-1.61-5.77Z"/><path class="cls-8" d="M22.77,256.11q.91,10.25,1.85,20.49l.93,10.25c.15,1.71.31,3.42.46,5.12.11,1.23.66,3,.23,4.16l.78-1.32-.25.28,1.32-.77-.36.11h1.59a2.91,2.91,0,0,0-.39-.12l1.32.77c-.74-.71-1-2.3-1.18-3.29a30.29,30.29,0,0,1-.47-4,46.24,46.24,0,0,0-1-8.7,22.26,22.26,0,0,0-3.79-7.33c-1.5-2.07-3-4.07-3.52-6.64l-5.47,2.3,9.84,12.88c3.08,4,6.7,8,9.16,12.42.93,1.67,1.62,3.6.57,5.37-1.2,2-3.16,3.75-4.71,5.51L18.84,315.83l4.7,3.63A35.15,35.15,0,0,1,41,304.33L37.57,303a4.83,4.83,0,0,1,0,3.94c-1.32,3.63,4.47,5.19,5.78,1.6a10.85,10.85,0,0,0-.6-8.57,3,3,0,0,0-3.38-1.37,41.63,41.63,0,0,0-21,17.88c-1.66,2.87,2.4,6.25,4.7,3.63l12.06-13.67c1.73-2,3.82-3.91,4.92-6.33a10,10,0,0,0,.25-7.45c-1.76-5.12-5.91-9.4-9.14-13.63L20,264.35c-2-2.67-6.12-1.18-5.47,2.3.9,4.88,4.88,7.88,6.75,12.26,2,4.68,1,10.16,2.18,15,.56,2.27,1.58,5.46,4.11,6.17,3.15.89,4.94-2.14,4.76-4.88-.41-6.1-1.1-12.2-1.65-18.3l-1.89-20.86a3.07,3.07,0,0,0-3-3,3,3,0,0,0-3,3Z"/><path class="cls-8" d="M2.39,256.94c2.38,2.62,3.35,6.21,4.74,9.39,1.73,3.91,4.72,7,6.65,10.77s3.36,7.94,5.34,11.78a95.32,95.32,0,0,0,6.76,11.17c1.56,2.24,5.76,1.7,5.58-1.51-.38-6.6-3.86-12.28-6.28-18.28-2.58-6.38-4.66-12.94-6.74-19.49-1.17-3.66-7-2.1-5.78,1.59,2,6.32,4,12.66,6.48,18.83,1.2,3,2.55,6,3.88,8.93a24.22,24.22,0,0,1,2.45,8.42L31.05,297a96.66,96.66,0,0,1-6.91-11.47c-2-3.95-3.41-8.21-5.51-12.1-2-3.65-4.84-6.64-6.47-10.5-1.54-3.65-2.81-7.27-5.53-10.25s-6.83,1.39-4.24,4.23Z"/><path class="cls-8" d="M3.72,255.92q11.67,20,22,40.66c1.73,3.45,6.9.42,5.18-3q-10.35-20.67-22-40.66c-1.94-3.33-7.12-.31-5.18,3Z"/><path class="cls-8" d="M2.31,253.11c9.74,16.12,19.59,32.4,25.63,50.34,1,3,6.14,2.76,5.88-.79-.73-10.09-4.62-19.35-9-28.32-4.72-9.56-9.61-19-14.41-28.56-1.21-2.38-4.78-1.63-5.48.71-1.76,6,1,11.78,3.55,17.05,2.44,5,5.2,9.77,7.89,14.61,5.26,9.45,10.55,19.35,11.73,30.27h6c-1.25-10.09-6.47-18.61-11.75-27.08a205.92,205.92,0,0,1-14.58-29c-.64-1.49-2.83-1.82-4.1-1.08a3.08,3.08,0,0,0-1.08,4.1,202.51,202.51,0,0,0,13.92,28c4.81,7.77,10.45,15.83,11.6,25.14a3.09,3.09,0,0,0,3,3,3,3,0,0,0,3-3c-1.2-11-5.78-20.95-11-30.56-2.61-4.77-5.35-9.47-7.86-14.3-2.33-4.47-6-10.27-4.5-15.49l-5.47.72C9.8,257.91,14.45,267,19,276.14c4.16,8.34,8.15,17.09,8.83,26.51l5.88-.79c-6.2-18.46-16.21-35.21-26.23-51.78-2-3.29-7.18-.28-5.17,3Z"/><path class="cls-8" d="M283,203.16c3.85,0,3.86-6,0-6s-3.87,6,0,6Z"/><path class="cls-8" d="M6,321.93A15.56,15.56,0,0,1,10.82,323a16,16,0,0,0,5.59.71c3.95-.25,7.58-1.75,11.18-3.28h-3l.33.24-1.08-1.08c1-1.35,1.13-1.89.5-1.63a1,1,0,0,1-.6.06c-.63,0-1.28,0-1.91,0l-3.86,0c-1.08,0-4.92.34-5.4-.37L10,322.16A95.18,95.18,0,0,1,22,322c3.79.21,7.53.92,11-1-1.37-1.36-2.73-2.73-4.1-4.1-.46.84,0,.18-.07.22a3.07,3.07,0,0,1-.93.22,10.65,10.65,0,0,1-2.39-.12c-1.61-.18-3,1.51-3,3a3.06,3.06,0,0,0,3,3c3.22.37,6.86-.16,8.56-3.28a3,3,0,0,0-4.1-4.1c-1.39.75-3,.53-4.54.41s-3.25-.25-4.88-.32a94.43,94.43,0,0,0-10.64.22c-2.1.16-3.94,2.48-2.58,4.51C10,324.57,14.86,324,19,324c3.8,0,10.4.72,10.69-4.76.11-2.05-1.36-4.39-3.61-4.39-1.2,0-2.52.84-3.63,1.27a32.88,32.88,0,0,1-3.22,1.08,11.85,11.85,0,0,1-6.52.12c-2.26-.64-4.36-1.46-6.75-1.4-3.85.11-3.86,6.1,0,6Z"/><path class="cls-8" d="M37.82,317.58a7.28,7.28,0,0,1,1.93-4.67c2.59-2.84-1.63-7.09-4.24-4.23a13.83,13.83,0,0,0-3.68,8.9c-.17,3.85,5.82,3.85,6,0Z"/><path class="cls-12" d="M41.15,352.77c5.54,4.92,10.46,10.48,16,15.46a56.49,56.49,0,0,0,19.39,11.85c7.24,2.56,13.66,6.17,18.93,11.84,5.09,5.48,8.28,12.54,16,14.89,4.07,1.24,8.49,1.16,12.71,1.31l13.77.5c4,.15,8.28.53,12.06-1.19,3.37-1.54,5.41-4.61,6.79-7.93,1.25-3,2-6.18,3.51-9.09a36.28,36.28,0,0,1,6.61-8.9c5.7-5.71,12.85-9.66,20-13.2,2-1,4-2.09,6.07-2.9a9,9,0,0,1,2.15-.63c.31,0,.62,0,.93,0,.49,0,.38.37.23,0,1,2.65-6.84,2.77-8.19,3a60.79,60.79,0,0,0-25.46,9.9c-3.17,2.16-.42,7,3,5.18,5.21-2.74,9.33-7.08,14.46-9.93s11.07-4.27,16.8-5.68l-3.68-2.09a6.67,6.67,0,0,1,.32,3.07c-.28,2.78,3.36,3.68,5.12,2.12A57.27,57.27,0,0,0,214,347.8a3,3,0,0,0-2.09-3.68c-22.25-3.24-44.53-.58-66.7,1.88-11.11,1.22-22.21,2.15-33.37,2.81s-22.23,1.53-33.35,1.9c-12.59.42-25.15-1.35-37.65-2.59.7,1.7,1.41,3.4,2.11,5.11a10,10,0,0,0,3.16-5.5l-2.89,2.19c21.56,1.08,43.14,1.34,64.72,1.31s43.13-.61,64.67-.19c5.93.12,11.86.35,17.78.77,2.54.18,5.67,0,8.05,1.05a2.79,2.79,0,0,1,1.6,1.66c.21.54-.07-.15-.06.13a.37.37,0,0,1-.21.06c.3.1.4.06.31-.1.21,1.56.41,3.13.61,4.7a31,31,0,0,0,4.61-7.12,3,3,0,0,0-3.38-4.4c-9.75,1.69-17.4,8.52-24.4,15a3,3,0,0,0,0,4.24,3.07,3.07,0,0,0,4.23,0,115.6,115.6,0,0,1,13.72-9.3L191.1,356a4.31,4.31,0,0,1-.69,3c-2,3.32,3.2,6.33,5.17,3a10.71,10.71,0,0,0,1.3-7.57c-.32-1.95-2.87-2.67-4.4-1.79a125.53,125.53,0,0,0-14.93,10.23l4.24,4.24c6.3-5.87,13-12,21.76-13.5-1.13-1.47-2.26-2.93-3.38-4.4a25.74,25.74,0,0,1-3.67,5.91,3.05,3.05,0,0,0,.6,4.71c4.55,3,10-2,8.75-6.85-1.47-5.69-7.55-6.48-12.47-6.89-12.07-1-24.2-1.14-36.31-1.09-24.3.08-48.61.46-72.91.18-13.64-.16-27.27-.52-40.9-1.2a3,3,0,0,0-2.88,2.2A4.69,4.69,0,0,1,38.76,349c-2.12,1.9-.26,4.88,2.12,5.11,11,1.09,22.12,2.71,33.21,2.68s22.3-1.07,33.41-1.72,22-1.39,33-2.56,21.87-2.54,32.85-3.33c12.31-.88,24.77-1.06,37,.72l-2.1-3.68A50.87,50.87,0,0,1,194.41,366l5.11,2.12a11,11,0,0,0-.54-4.66,3,3,0,0,0-3.68-2.09c-6,1.48-12.13,3-17.66,6s-9.63,7.4-15,10.24l3,5.17a56.32,56.32,0,0,1,23.37-9.2c3.75-.55,8.09-.37,11-3.23,2.73-2.71,3.37-7.25.33-10-2.8-2.52-6.93-1.64-10-.3-3.84,1.66-7.61,3.59-11.3,5.56-7.28,3.91-14.33,8.7-19.55,15.2a39,39,0,0,0-5.9,10c-1.2,3-1.82,6.45-3.73,9.14-2.24,3.18-6.2,2.89-9.68,2.77l-14.52-.53c-4.17-.15-8.58.07-12.6-1.15-3.63-1.11-6-4-8.22-7-4.73-6.38-10.08-11.87-17.12-15.73-4.25-2.32-8.88-3.53-13.29-5.46a43.89,43.89,0,0,1-10.14-6.39c-6.7-5.53-12.34-12.2-18.83-18-2.88-2.55-7.13,1.67-4.24,4.23Z"/><path class="cls-12" d="M57.38,363c6.07,4.42,12.92,7.49,19.73,10.55,3.36,1.51,6.72,3,10,4.74,1.63.85,3.23,1.75,4.78,2.72.78.48,1.55,1,2.3,1.49l1,.7c.21.15,1.84,1.41.4.28l7.47-12.82c-5.82-1.7-11.67-3.32-17.43-5.22-.52-.2-.41-.15.34.15a8.69,8.69,0,0,1-.86-.44A6.06,6.06,0,0,1,83.28,364l.59.47c-.32-.26-.62-.52-.92-.79-.46-.41-.89-.84-1.31-1.28-.85-.88-1.65-1.82-2.42-2.77-.57-.7-1-1.37-.21-.25q-.62-1.06.12.57-.87-3.46-1.52,5.22l-3.39,2c-1,.38-1.19-.05-.34,0,.48.05,1,.08,1.46.11,1,.06,1.94.11,2.91.14q3.1.1,6.21,0a119.62,119.62,0,0,0,13-1.2c4-.55,8-1.27,11.93-1.95q2.88-.49,5.78-.93c.84-.13,1.68-.26,2.52-.37l.79-.11,1.14-.15a464.3,464.3,0,0,1,47.29-3.16q6.57-.16,13.13-.26l6.94-.1,1.38,0c.56,0,1.67.28,0-.15,1.41.36-.11.25-1.44-1.1s-2-4.42-.75-6.12l6.62-3.8a294.06,294.06,0,0,0-44.65,5.47c-14.1,2.84-27.73,7.46-41.76,10.56-1.83.4-3.66.77-5.5,1.09-1,.19-2.07.33-3.11.51s.19,0,.31,0l-1.73.2a75.32,75.32,0,0,1-12.2.35l2,15.08c1.49-.25,3-.5,4.48-.72l2.42-.35c.1,0,1.25-.18.36-.06s.87-.11,1-.13c3.13-.4,6.25-.75,9.38-1.06,6.5-.65,13-1.16,19.53-1.67,13.2-1,26.41-2.13,39.49-4.3a173.24,173.24,0,0,0,21.33-4.87l-7.47-12.83c-.15.2-.39.41-.51.61-.44.7.34-.46.52-.36a16.11,16.11,0,0,0-1.67.9c-1.38.63-2.78,1.22-4.18,1.82L162,362.12c-5.91,2.57-11.81,5.16-17.73,7.72l-1,.42-.71.3-.39.16-1,.4c-1.42.57-2.85,1.12-4.29,1.63a64.4,64.4,0,0,1-8.85,2.44c-.81.16-1.62.28-2.44.42s.16,0,.29,0l-1,.12c-1.65.16-3.3.27-5,.3-.67,0-1.34,0-2,0-.33,0-.67,0-1-.07.12,0,1.26.22.42,0s.18.15.29.21c-.28-.15-.54-.3-.81-.47-.7-.44-1.34-1-2-1.47-6.33-4.64-15.69-3.59-21.07,2.06a7.73,7.73,0,0,0-1.58,8.38c1.09,2.6,4,5,7,4.71,1.1-.09,2.18-.07,3.28-.08.85,0-.79,0-.8-.11s.62.12.7.19c.51.47-.69-.28-.76-.32-.3-.18-1.15-1.08-.46-.34-.19-.21-.58-1.09-.45-.4a6.62,6.62,0,0,0,.49,1.09,8.87,8.87,0,0,0,.85,1.54,18,18,0,0,0,4.8,4.73,51.65,51.65,0,0,0,7.07,4,39.77,39.77,0,0,0,9.12,3.46c7.26,1.54,14-.13,20.41-3.6A112,112,0,0,0,159.09,389a27.82,27.82,0,0,0,6.74-7.28c2.33-3.78,2.77-7.72,2.18-12-.52-3.77-5.08-5.95-8.42-5.5a7.7,7.7,0,0,0-6.66,7.54c0,.37,0,.75-.05,1.12.17-1.11.18-1.24,0-.37-.14.5-.22,1.78-.62,2.16.43-1,.47-1.06.1-.29-.08.17-.17.33-.26.5-.18.34-1.36,2.59-.36.78a9.19,9.19,0,0,1-1.54,1.64c-1.19,1.23,1.26-.7-.21.18-1.18.71-2.41,1.33-3.59,2a15,15,0,0,0-7.13,8.38c-.14.44-1.06,3.62-.83,3.87-1-1.05,3.8-3.06,3.16-3.08a11.59,11.59,0,0,0-2.43.52c-3.52.69-7.05,1.38-10.59,1.93l-2.13.32c1.68-.24-1.23.13-1.52.16-1.59.17-3.19.32-4.78.37a6.38,6.38,0,0,1-2.43,0c1.05.17,1.14.18.27,0a9.3,9.3,0,0,1-1.14-.34l.75.29c-.7-.44-.6-.35.28.27-.56-.61-.5-.5.19.33-.4-.73-.36-.6.12.43-.2-.84-.17-.66.07.55a2.65,2.65,0,0,1-.74,2.1q-2.43,5.2-10-.22c-.5-1.27-.61-1.53-.33-.77a12.82,12.82,0,0,0,3.11,5.39c3,2.73,8,3.13,10.85,0,2.73-3,3.15-7.94,0-10.85,1.12,1,.83,1.3.51.66,0,.06.74,1.87.33.72a18.71,18.71,0,0,0-1.14-2.73,9.12,9.12,0,0,0-6.73-4.71c-6.17-.83-11.14,4.37-11.21,10.41a13.67,13.67,0,0,0,6.93,11.67c3.59,2,7.83,2.36,11.86,2.08a155.26,155.26,0,0,0,23.19-3.58,11.27,11.27,0,0,0,8.65-9.24c.12-.66.25-1.32.37-2,0-.22.34-1.06-.06,0-.07.16-.13.32-.2.47.36-.55.34-.55-.05,0l-.29.4c.47-.43.45-.44-.06,0,0,0-.75.48,0,0s1.31-.78,2-1.14c7.75-4.16,12.73-11.48,13-20.39l-15.07,2c-.14-1.13-.2-1.27-.17-.42.2-1.16.22-1.31,0-.47a9,9,0,0,1-.31,1c.44-1,.47-1.13.09-.37-.18.32-.38.63-.59.93-.48.69-.43.61.18-.2-.14.43-.84.93-1.17,1.27-.55.55-1.12,1.07-1.71,1.57l-.88.73c.84-.65.87-.69.1-.11-1.31.94-2.6,1.89-3.93,2.79-2.8,1.92-5.69,3.75-8.66,5.4q-1.14.63-2.31,1.2l-1.18.55q1.25-.54,0-.06l-2.48.7c-.88.16-.83.18.14,0l-1,.06a6.23,6.23,0,0,1-2.24-.06c1,.15,1,.15.15,0-.42-.08-.84-.18-1.25-.28-.83-.22-1.63-.52-2.45-.78s-.81-.31,0,.05l-.9-.4c-1.49-.69-2.93-1.45-4.37-2.24-.72-.39-1.45-.78-2.15-1.19-.19-.11-2.07-1.35-1.18-.69.46.38.43.33-.11-.13-.57-.62-.54-.53.1.26-.49-.24-.81-1.68-1-2.14a12,12,0,0,0-4.53-4.91c-3.08-1.88-6.85-2.2-10.37-1.89l5.43,13.1c.17-.19.38-.36.55-.56.53-.62-.43.45-.53.41a4.28,4.28,0,0,0,.67-.39c.81-.56-1.37.34-.4.17.29-.05,2-.5.77-.22s-.14-.05,0,.07l.52,0-1-.14a2.84,2.84,0,0,0,.75.19c.92.11-.75-.28-.62-.31.38-.11,1.42.86,1.75,1.11a19.4,19.4,0,0,0,3.41,2.19c6.59,3,14.81,1.72,21.68.37,6.46-1.26,12.53-3.76,18.56-6.34s12-5.22,18-7.83l10-4.33c3.15-1.38,6.73-2.57,8.94-5.37,2.07-2.62,3.19-6.22,1.2-9.3a7.86,7.86,0,0,0-8.66-3.53,169.56,169.56,0,0,1-18.59,4.4c-1.6.29-3.2.55-4.8.8l-2.06.32-1.38.2-.7.1-.36,0-1.38.17c-.7.09-1.39.18-2.08.25-1.73.21-3.46.4-5.19.58-12.76,1.33-25.57,2.05-38.34,3.29-7.75.75-15.48,1.7-23.16,3-3.75.64-6,5-5.5,8.42a7.73,7.73,0,0,0,7.54,6.66c19.67,1.06,38.34-6.21,57.13-10.79a273.39,273.39,0,0,1,28.38-5.37l.46-.06,1.8-.22,3.59-.41c2.39-.25,4.79-.48,7.19-.67s4.8-.36,7.2-.49a20.67,20.67,0,0,0,4.93-.41,8.8,8.8,0,0,0,5.61-5.72,10,10,0,0,0-2.36-9.95,12.74,12.74,0,0,0-9.14-3.57c-4.78-.12-9.6.12-14.38.21-9.85.18-19.7.45-29.54,1q-15.22.9-30.33,3c-4.83.67-9.63,1.51-14.43,2.33l-3.62.59-1.81.28c-.36.05-2,.26-.5.08-2.42.3-4.84.53-7.28.67q-4.36.24-8.75.09c-3.37-.12-6.85-.79-9.94,1-3.83,2.23-5.12,6.79-4,10.9.83,3,3.07,5.36,5,7.64a29.85,29.85,0,0,0,13.72,9.1c5.25,1.71,10.61,3.13,15.9,4.67a7.77,7.77,0,0,0,8.67-3.52c1.46-2.77,1.52-7.17-1.2-9.3-6.47-5.08-13.54-8.71-21-12.08-7-3.15-14-6.26-20.28-10.79-3.26-2.37-8.7-.67-10.5,2.75-2.1,4-.72,8,2.75,10.49Z"/><path class="cls-12" d="M125.78,409.71c4,0,7.86-3.53,7.67-7.67a7.8,7.8,0,0,0-7.67-7.67c-4,0-7.86,3.53-7.67,7.67a7.8,7.8,0,0,0,7.67,7.67Z"/><path class="cls-12" d="M120,409c4,0,7.86-3.53,7.67-7.68a7.8,7.8,0,0,0-7.67-7.67c-4,0-7.87,3.53-7.68,7.67A7.81,7.81,0,0,0,120,409Z"/><path class="cls-12" d="M120.63,409c4,0,7.86-3.53,7.67-7.68a7.8,7.8,0,0,0-7.67-7.67c-4,0-7.86,3.53-7.67,7.67a7.81,7.81,0,0,0,7.67,7.68Z"/><path class="cls-12" d="M118.57,409.71c4,0,7.86-3.53,7.68-7.67a7.81,7.81,0,0,0-7.68-7.67c-4,0-7.86,3.53-7.67,7.67a7.8,7.8,0,0,0,7.67,7.67Z"/><path class="cls-12" d="M114.79,409.71c4,0,7.87-3.53,7.68-7.67a7.81,7.81,0,0,0-7.68-7.67c-4,0-7.86,3.53-7.67,7.67a7.8,7.8,0,0,0,7.67,7.67Z"/><path class="cls-13" d="M214.53,342.37c-11.41-3.9-23.17,0-34.82-.53-6.07-.28-12-1.26-18.11-1.25a174.57,174.57,0,0,0-18,.7,53.86,53.86,0,0,0-8.92,1.54c-2.65.72-5.28,1.89-8.06,2-5.87.28-11.61-1.85-17.46-2.14-6.08-.3-12.1.68-18.13,1.18a145.05,145.05,0,0,1-18.88.12c-7-.35-13.91-.91-20.86-1.38-3.32-.23-7-.93-10.29-.53-3.91.48-6.67,4.62-4.44,8.25,2.77,4.5,9.9.37,7.11-4.16l-.21-.35.56,2.08-1.93,2.33,1.26.08,2.17.14,4.32.29,8.66.6c5.91.41,11.82.86,17.73,1.05a136.86,136.86,0,0,0,17.65-.55c5.42-.54,10.88-1.26,16.34-.85s10.84,2.35,16.41,2.06,10.73-2.85,16.28-3.49c11.06-1.28,22.26-.86,33.3.21,6.25.61,12.36,0,18.58-.59,5.92-.54,11.86-.85,17.57,1.1a4.16,4.16,0,0,0,5.07-2.88,4.21,4.21,0,0,0-2.89-5.06Z"/><path class="cls-13" d="M208.5,352.5c-5.69-.24-11.59-.41-17.1,1.24a34.28,34.28,0,0,0-7.8,3.84c-2.48,1.49-5.1,1.45-7.92,1.52-13.48.34-26.76-.69-40.16-2a27,27,0,0,0-9.56.45c-2.63.68-5.18,2.15-7.95,1.41a71,71,0,0,0-8.88-2.18,65.27,65.27,0,0,0-9.37-.53c-5,0-11.94-.63-15.29,3.92a22.45,22.45,0,0,1-1.46,2.5c.2-.19.49,0,.33-.25s-1-.89-1.38-1.24a13.68,13.68,0,0,0-6.45-3.88,30.32,30.32,0,0,0-8.87-.39,65,65,0,0,1-10.44-.16,28.83,28.83,0,0,1-8.8-1.92c-1.63-.72-3.79-2-3.95-4-.32-3.82-6.31-3.85-6,0,.45,5.44,4.76,8.61,9.63,10.22,6,2,12.79,2.19,19,1.84a28.71,28.71,0,0,1,7.58.08c2.52.56,3.72,2.3,5.64,3.83,2.3,1.84,5.47,2.43,7.78.22,1.6-1.54,1.7-3.76,4-4.35,2.62-.66,5.6-.44,8.28-.47a55.44,55.44,0,0,1,9.89.58c3.11.53,6,1.95,9.16,2.29s5.86-.9,8.79-1.71c3.28-.91,6.73-.5,10.06-.12s6.84.76,10.26,1q10.53.85,21.08.87a107.65,107.65,0,0,0,11.36-.28c3.6-.37,6.09-2,9.14-3.72,5.79-3.36,12.91-3,19.35-2.69,3.85.17,3.84-5.82,0-6Z"/><path class="cls-12" d="M42.7,356.28h4.46a3,3,0,0,0,0-6H42.7a3,3,0,1,0,0,6Z"/><path class="cls-12" d="M40.63,355.25c3.86,0,3.86-6,0-6s-3.86,6,0,6Z"/><path class="cls-12" d="M116.3,386.41a7.63,7.63,0,0,1,1.5,3.11,8.82,8.82,0,0,0,.83,3.27c1.48,2.35,4.73,2.25,7.16,2.31a40,40,0,0,0,16.07-3c2.12-.87,3.3-4.22.72-5.48-5.4-2.61-11.24-3.17-17.15-3.57-3.84-.26-3.83,5.73,0,6,4.78.32,9.74.63,14.12,2.75l.72-5.47a35.83,35.83,0,0,1-12.48,2.79c-1,0-2,0-3,0a5.67,5.67,0,0,0-1.49-.09c-.53-.07-.34.24.56.94,0-.2,0-.4-.07-.61a11.21,11.21,0,0,0-2.32-5.93,3.09,3.09,0,0,0-4.1-1.08,3,3,0,0,0-1.07,4.11Z"/><path class="cls-12" d="M75.66,369.69c4.76-.49,9.34,1.07,14.06,1.4s9.25-.81,13.69.66c3.67,1.21,5.24-4.57,1.59-5.78-4.79-1.59-9.68-.62-14.6-.83s-9.74-1.95-14.75-1.44a3.07,3.07,0,0,0-3,3,3,3,0,0,0,3,3Z"/><path class="cls-13" d="M79.09,364.5a46.63,46.63,0,0,0,11.12-.82c3.34-.64,2.54-5.95-.8-5.88q-8.77.18-17.54-.1c-3.86-.12-3.85,5.87,0,6q8.76.27,17.54.1-.39-2.94-.8-5.88a40,40,0,0,1-9.53.61c-3.84-.2-3.83,5.8,0,6Z"/></g></g></svg>